<svg width="10" height="12" viewBox="0 0 10 12" fill="none" xmlns="http://www.w3.org/2000/svg">
<path d="M5.24851 0.505005C5.10921 0.372355 4.89046 0.372355 4.75151 0.505005C4.59016 0.666355 0.800007 4.51985 0.800007 7.05C0.777607 9.3474 2.62176 11.2276 4.91916 11.25C4.94611 11.25 4.97306 11.25 5.00001 11.25C7.29741 11.2724 9.17761 9.42826 9.20001 7.13086C9.20001 7.10391 9.20001 7.07695 9.20001 7.05C9.20001 4.51985 5.40986 0.666355 5.24851 0.505005ZM5.00001 8.8C4.03506 8.8 3.25001 8.01495 3.25001 7.05C3.25001 6.8568 3.40681 6.7 3.60001 6.7C3.79321 6.7 3.95001 6.8568 3.95001 7.05C3.95001 7.6289 4.42111 8.1 5.00001 8.1C5.19321 8.1 5.35001 8.2568 5.35001 8.45C5.35001 8.6432 5.19321 8.8 5.00001 8.8Z" fill="#171A1F"/>
</svg>
