<svg width="24" height="24" viewBox="0 0 24 24" fill="none" xmlns="http://www.w3.org/2000/svg">
<rect width="24" height="24" fill="#F5F5F5"/>
<g id="w-Home" clip-path="url(#clip0_0_1)" filter="url(#filter0_d_0_1)">
<rect width="1440" height="1262" transform="translate(-754 -664)" fill="#FAFAFB"/>
<g id="Container 353" filter="url(#filter1_dd_0_1)">
<g clip-path="url(#clip1_0_1)">
<rect x="-457" y="-126" width="649" height="192" rx="20" fill="#323743"/>
<g id="Button 82">
<rect x="-40" y="-14" width="213" height="52" rx="26" fill="#EC3237"/>
<g id="Card update">
<path id="Vector" d="M19.0206 13.3794C18.393 12.879 17.6208 12.6 16.8 12.6C14.8146 12.6 13.2 14.2146 13.2 16.2H14.4C14.4 14.8764 15.4764 13.8 16.8 13.8C17.2956 13.8 17.7594 13.9656 18.1554 14.2446L16.8 15.6L20.4 15.6V12L19.0206 13.3794Z" fill="white"/>
<path id="Vector_2" d="M16.8 19.2C16.3044 19.2 15.8406 19.0344 15.4446 18.7554L16.8 17.4H13.2L13.2 21L14.5794 19.6206C15.207 20.121 15.9792 20.4 16.8 20.4C18.7854 20.4 20.4 18.7854 20.4 16.8H19.2C19.2 18.1236 18.1236 19.2 16.8 19.2Z" fill="white"/>
<path id="Vector_3" d="M19.7999 3L4.1999 3C3.2075 3 2.3999 3.8076 2.3999 4.8L2.3999 15.6C2.3999 16.5924 3.2075 17.4 4.1999 17.4L10.7999 17.4V16.2L4.1999 16.2C3.8687 16.2 3.5999 15.9306 3.5999 15.6L3.5999 10.8L21.5999 10.8L21.5999 4.8C21.5999 3.8076 20.7923 3 19.7999 3ZM4.1999 4.2L19.7999 4.2C20.1311 4.2 20.3999 4.4694 20.3999 4.8V6.6L3.5999 6.6L3.5999 4.8C3.5999 4.4694 3.8687 4.2 4.1999 4.2Z" fill="white"/>
<path id="Vector_4" d="M10.2 13.2L4.80005 13.2L4.80005 14.4L10.2 14.4V13.2Z" fill="white"/>
</g>
</g>
</g>
</g>
</g>
<defs>
<filter id="filter0_d_0_1" x="-760" y="-667" width="1452" height="1274" filterUnits="userSpaceOnUse" color-interpolation-filters="sRGB">
<feFlood flood-opacity="0" result="BackgroundImageFix"/>
<feColorMatrix in="SourceAlpha" type="matrix" values="0 0 0 0 0 0 0 0 0 0 0 0 0 0 0 0 0 0 127 0" result="hardAlpha"/>
<feOffset dy="3"/>
<feGaussianBlur stdDeviation="3"/>
<feColorMatrix type="matrix" values="0 0 0 0 0.0705882 0 0 0 0 0.0588235 0 0 0 0 0.156863 0 0 0 0.12 0"/>
<feBlend mode="normal" in2="BackgroundImageFix" result="effect1_dropShadow_0_1"/>
<feBlend mode="normal" in="SourceGraphic" in2="effect1_dropShadow_0_1" result="shape"/>
</filter>
<filter id="filter1_dd_0_1" x="-459" y="-128" width="653" height="196" filterUnits="userSpaceOnUse" color-interpolation-filters="sRGB">
<feFlood flood-opacity="0" result="BackgroundImageFix"/>
<feColorMatrix in="SourceAlpha" type="matrix" values="0 0 0 0 0 0 0 0 0 0 0 0 0 0 0 0 0 0 127 0" result="hardAlpha"/>
<feOffset/>
<feGaussianBlur stdDeviation="0.5"/>
<feColorMatrix type="matrix" values="0 0 0 0 0.0901961 0 0 0 0 0.101961 0 0 0 0 0.121569 0 0 0 0.07 0"/>
<feBlend mode="normal" in2="BackgroundImageFix" result="effect1_dropShadow_0_1"/>
<feColorMatrix in="SourceAlpha" type="matrix" values="0 0 0 0 0 0 0 0 0 0 0 0 0 0 0 0 0 0 127 0" result="hardAlpha"/>
<feOffset/>
<feGaussianBlur stdDeviation="1"/>
<feColorMatrix type="matrix" values="0 0 0 0 0.0901961 0 0 0 0 0.101961 0 0 0 0 0.121569 0 0 0 0.12 0"/>
<feBlend mode="normal" in2="effect1_dropShadow_0_1" result="effect2_dropShadow_0_1"/>
<feBlend mode="normal" in="SourceGraphic" in2="effect2_dropShadow_0_1" result="shape"/>
</filter>
<clipPath id="clip0_0_1">
<rect width="1440" height="1262" fill="white" transform="translate(-754 -664)"/>
</clipPath>
<clipPath id="clip1_0_1">
<rect x="-457" y="-126" width="649" height="192" rx="20" fill="white"/>
</clipPath>
</defs>
</svg>
