<svg width="17" height="17" viewBox="0 0 17 17" fill="none" xmlns="http://www.w3.org/2000/svg">
<g clip-path="url(#clip0_1_3328)">
<path d="M9.16634 1.8667V3.8867C11.4263 4.21337 13.1663 6.1467 13.1663 8.50003C13.1663 9.10003 13.0463 9.6667 12.8463 10.1934L14.5797 11.2134C14.953 10.3867 15.1663 9.4667 15.1663 8.50003C15.1663 5.0467 12.533 2.20003 9.16634 1.8667ZM8.49967 13.1667C5.91967 13.1667 3.83301 11.08 3.83301 8.50003C3.83301 6.1467 5.57301 4.21337 7.83301 3.8867L7.83301 1.8667C4.45967 2.20003 1.83301 5.04003 1.83301 8.50003C1.83301 12.18 4.81301 15.1667 8.49301 15.1667C10.6997 15.1667 12.653 14.0934 13.8663 12.44L12.133 11.42C11.2797 12.4867 9.97301 13.1667 8.49967 13.1667Z" fill="white"/>
</g>
<defs>
<clipPath id="clip0_1_3328">
<rect width="16" height="16" fill="white" transform="translate(0.5 0.5)"/>
</clipPath>
</defs>
</svg>
