<svg width="24" height="24" viewBox="0 0 24 24" fill="none" xmlns="http://www.w3.org/2000/svg">
<path d="M11.4 16.2H3L3 3L21 3L21 11.4" stroke="#EC3237" stroke-width="1.44" stroke-miterlimit="10" stroke-linecap="square"/>
<path d="M12.0002 11.3998C12.9943 11.3998 13.8002 10.5939 13.8002 9.5998C13.8002 8.60569 12.9943 7.7998 12.0002 7.7998C11.0061 7.7998 10.2002 8.60569 10.2002 9.5998C10.2002 10.5939 11.0061 11.3998 12.0002 11.3998Z" stroke="#EC3237" stroke-width="1.44" stroke-miterlimit="10" stroke-linecap="square"/>
<path d="M18.5999 10.1999V7.7999C17.2445 7.7999 16.1999 6.7553 16.1999 5.3999L7.7999 5.3999C7.7999 6.7553 6.7553 7.7999 5.3999 7.7999L5.3999 11.3999C6.7553 11.3999 7.7999 12.4445 7.7999 13.7999L11.3999 13.7999" stroke="#EC3237" stroke-width="1.44" stroke-miterlimit="10" stroke-linecap="square"/>
<path d="M13.7998 14.3999V16.7999C13.7998 17.7941 15.4114 18.5999 17.3998 18.5999C19.3882 18.5999 20.9998 17.7941 20.9998 16.7999V14.3999" stroke="#EC3237" stroke-width="1.44" stroke-miterlimit="10"/>
<path d="M13.7998 16.7998V19.1998C13.7998 20.194 15.4114 20.9998 17.3998 20.9998C19.3882 20.9998 20.9998 20.194 20.9998 19.1998V16.7998" stroke="#EC3237" stroke-width="1.44" stroke-miterlimit="10"/>
<path d="M17.3998 16.2001C19.388 16.2001 20.9998 15.3942 20.9998 14.4001C20.9998 13.406 19.388 12.6001 17.3998 12.6001C15.4116 12.6001 13.7998 13.406 13.7998 14.4001C13.7998 15.3942 15.4116 16.2001 17.3998 16.2001Z" stroke="#EC3237" stroke-width="1.44" stroke-miterlimit="10" stroke-linecap="square"/>
</svg>
