<svg width="33" height="33" viewBox="0 0 33 33" fill="none" xmlns="http://www.w3.org/2000/svg">
<path d="M28.1393 20.1688L24.6393 19.168C24.3563 19.087 24.1011 18.9296 23.9018 18.7129C23.7025 18.4962 23.5668 18.2288 23.5097 17.94L23.2945 16.86C24.1305 16.4781 24.8393 15.8643 25.3366 15.0914C25.834 14.3185 26.099 13.4191 26.1001 12.5V10.3016C26.1199 9.02873 25.6469 7.79748 24.7799 6.86533C23.9129 5.93318 22.7191 5.37231 21.4481 5.3C20.4995 5.27123 19.5637 5.52431 18.7589 6.02724C17.9541 6.53017 17.3165 7.26038 16.9265 8.1256C17.6899 9.23696 18.099 10.5533 18.1001 11.9016L18.1001 14.1C18.0971 14.682 18.0139 15.2607 17.8529 15.82C18.2681 16.2542 18.7608 16.607 19.3057 16.86L19.0905 17.94C19.0332 18.2285 18.8974 18.4956 18.6981 18.712C18.4988 18.9283 18.2438 19.0856 17.9609 19.1664L16.6113 19.552L18.9793 20.2288C19.6472 20.4217 20.2345 20.826 20.6529 21.3811C21.0714 21.9362 21.2985 22.612 21.3001 23.3072L21.3001 26.1C21.2975 26.3731 21.2477 26.6438 21.1529 26.9L28.5001 26.9C28.7123 26.9 28.9158 26.8157 29.0658 26.6657C29.2158 26.5157 29.3001 26.3122 29.3001 26.1L29.3001 21.7072C29.3001 21.3595 29.1868 21.0212 28.9773 20.7436C28.7679 20.466 28.4737 20.2643 28.1393 20.1688Z" fill="#EC3237"/>
<path d="M18.5394 21.7688L15.0394 20.768C14.7564 20.687 14.5012 20.5296 14.3019 20.3129C14.1026 20.0962 13.9669 19.8288 13.9098 19.54L13.6946 18.4592C14.5305 18.0774 15.2392 17.4636 15.7365 16.6909C16.2338 15.9182 16.4989 15.0189 16.5002 14.1V11.9016C16.52 10.6287 16.047 9.39748 15.18 8.46533C14.313 7.53317 13.1192 6.9723 11.8482 6.89999C11.2055 6.88016 10.5654 6.98966 9.96583 7.22199C9.36628 7.45433 8.81951 7.80475 8.358 8.25246C7.89648 8.70017 7.52962 9.23604 7.2792 9.82827C7.02877 10.4205 6.89989 11.057 6.9002 11.7V14.1C6.90105 15.0193 7.1659 15.9191 7.66326 16.6923C8.16062 17.4655 8.86956 18.0796 9.7058 18.4616L9.4906 19.54C9.4331 19.8283 9.29726 20.0953 9.09799 20.3115C8.89872 20.5277 8.64372 20.6848 8.361 20.7656L4.861 21.7688C4.52662 21.8642 4.23244 22.066 4.02299 22.3436C3.81354 22.6212 3.70023 22.9595 3.7002 23.3072L3.7002 26.1C3.7002 26.3122 3.78448 26.5156 3.93451 26.6657C4.08454 26.8157 4.28802 26.9 4.5002 26.9L18.9002 26.9C19.1124 26.9 19.3159 26.8157 19.4659 26.6657C19.6159 26.5156 19.7002 26.3122 19.7002 26.1L19.7002 23.3072C19.7002 22.9595 19.5868 22.6212 19.3774 22.3436C19.168 22.066 18.8738 21.8642 18.5394 21.7688Z" fill="#EC3237"/>
</svg>
