<svg width="36" height="45" viewBox="0 0 36 45" fill="none" xmlns="http://www.w3.org/2000/svg">
<path d="M26.9844 8.32622C24.5718 5.53996 21.8565 3.03101 18.8887 0.845753C18.626 0.661712 18.313 0.562988 17.9922 0.562988C17.6714 0.562988 17.3584 0.661712 17.0957 0.845753C14.1333 3.03192 11.4233 5.54084 9.01562 8.32622C3.64648 14.4922 0.8125 20.9922 0.8125 27.125C0.8125 31.6835 2.62332 36.0552 5.8466 39.2785C9.06988 42.5017 13.4416 44.3125 18 44.3125C22.5584 44.3125 26.9301 42.5017 30.1534 39.2785C33.3767 36.0552 35.1875 31.6835 35.1875 27.125C35.1875 20.9922 32.3535 14.4922 26.9844 8.32622ZM28.9082 28.9493C28.503 31.2124 27.4142 33.297 25.7884 34.9225C24.1625 36.548 22.0776 37.6364 19.8145 38.0411C19.7311 38.0544 19.6469 38.0616 19.5625 38.0625C19.1706 38.0624 18.793 37.9151 18.5046 37.6496C18.2163 37.3841 18.0382 37.02 18.0058 36.6294C17.9733 36.2388 18.0889 35.8503 18.3295 35.5409C18.57 35.2315 18.9181 35.0238 19.3047 34.959C22.541 34.4141 25.2871 31.668 25.8359 28.4258C25.9053 28.0171 26.1343 27.6527 26.4724 27.4128C26.8104 27.1729 27.23 27.0771 27.6387 27.1465C28.0474 27.2159 28.4118 27.4449 28.6517 27.783C28.8916 28.121 28.9874 28.5406 28.918 28.9493H28.9082Z" fill="#71B2FF"/>
</svg>
