<svg width="16" height="16" viewBox="0 0 16 16" fill="none" xmlns="http://www.w3.org/2000/svg">
<path d="M13.9996 6.4C14.1424 6.4 14.2808 6.3232 14.3532 6.1884C14.4572 5.9936 14.3832 5.7512 14.1884 5.6472L8.18841 2.4472C8.07041 2.3844 7.93001 2.3844 7.81201 2.4472L1.81201 5.6472C1.61721 5.7512 1.54321 5.9936 1.64721 6.1884C1.75161 6.3828 1.99241 6.4572 2.18881 6.3532L8.00001 3.2532L13.8116 6.3528C13.872 6.3848 13.9364 6.4 13.9996 6.4Z" fill="white"/>
<path d="M11.6 10.4C12.4837 10.4 13.2 9.68365 13.2 8.8C13.2 7.91634 12.4837 7.2 11.6 7.2C10.7163 7.2 10 7.91634 10 8.8C10 9.68365 10.7163 10.4 11.6 10.4Z" fill="white"/>
<path d="M4.39999 10.4C5.28364 10.4 5.99999 9.68365 5.99999 8.8C5.99999 7.91634 5.28364 7.2 4.39999 7.2C3.51633 7.2 2.79999 7.91634 2.79999 8.8C2.79999 9.68365 3.51633 10.4 4.39999 10.4Z" fill="white"/>
<path d="M6.60998 11.3732C6.16838 11.1116 5.42598 10.8 4.39998 10.8C3.35998 10.8 2.62158 11.1104 2.18478 11.3716C1.82438 11.5872 1.59998 11.982 1.59998 12.4028V12.8C1.59998 13.0212 1.77878 13.2 1.99998 13.2L6.79998 13.2C7.02118 13.2 7.19998 13.0212 7.19998 12.8L7.19998 12.4072C7.19998 11.984 6.97398 11.588 6.60998 11.3732Z" fill="white"/>
<path d="M13.81 11.3732C13.3684 11.1116 12.626 10.8 11.6 10.8C10.56 10.8 9.82159 11.1104 9.38479 11.3716C9.02439 11.5872 8.79999 11.982 8.79999 12.4028V12.8C8.79999 13.0212 8.97879 13.2 9.19999 13.2L14 13.2C14.2212 13.2 14.4 13.0212 14.4 12.8V12.4072C14.4 11.984 14.174 11.588 13.81 11.3732Z" fill="white"/>
</svg>
