<svg width="12" height="12" viewBox="0 0 12 12" fill="none" xmlns="http://www.w3.org/2000/svg">
<path d="M10.0242 5.88093L4.77422 11.5059C4.71859 11.5653 4.64515 11.605 4.56499 11.6189C4.48483 11.6329 4.4023 11.6204 4.32986 11.5834C4.25741 11.5464 4.19898 11.4868 4.16338 11.4136C4.12778 11.3404 4.11694 11.2577 4.1325 11.1778L4.81969 7.74046L2.11828 6.72609C2.06027 6.70439 2.00853 6.66865 1.96769 6.62208C1.92686 6.5755 1.8982 6.51954 1.88427 6.45918C1.87034 6.39882 1.87158 6.33596 1.88788 6.2762C1.90417 6.21644 1.93502 6.16164 1.97766 6.11671L7.22766 0.491713C7.28329 0.43234 7.35673 0.392672 7.43689 0.378696C7.51705 0.364721 7.59958 0.377196 7.67202 0.414239C7.74447 0.451282 7.8029 0.510883 7.8385 0.584049C7.8741 0.657214 7.88494 0.739973 7.86938 0.819838L7.18031 4.26093L9.88172 5.2739C9.93931 5.29575 9.99063 5.33144 10.0311 5.37784C10.0717 5.42423 10.1001 5.47988 10.114 5.53989C10.1279 5.59989 10.1268 5.6624 10.1108 5.72188C10.0949 5.78136 10.0645 5.83599 10.0223 5.88093H10.0242Z" fill="#FFCA4F"/>
</svg>
