<svg width="20" height="20" viewBox="0 0 20 20" fill="none" xmlns="http://www.w3.org/2000/svg">
<path d="M10 17.5C14.1421 17.5 17.5 14.1421 17.5 10C17.5 5.85786 14.1421 2.5 10 2.5C5.85786 2.5 2.5 5.85786 2.5 10C2.5 14.1421 5.85786 17.5 10 17.5Z" stroke="#F5C747" stroke-width="1.2" stroke-miterlimit="10" stroke-linecap="square"/>
<path d="M10 14.5C12.4853 14.5 14.5 12.4853 14.5 10C14.5 7.51472 12.4853 5.5 10 5.5C7.51472 5.5 5.5 7.51472 5.5 10C5.5 12.4853 7.51472 14.5 10 14.5Z" stroke="#F5C747" stroke-width="1.2" stroke-miterlimit="10" stroke-linecap="square"/>
<path d="M10 11.5C10.8284 11.5 11.5 10.8284 11.5 10C11.5 9.17157 10.8284 8.5 10 8.5C9.17157 8.5 8.5 9.17157 8.5 10C8.5 10.8284 9.17157 11.5 10 11.5Z" stroke="#F5C747" stroke-width="1.2" stroke-miterlimit="10" stroke-linecap="square"/>
</svg>
