<svg width="36" height="48" viewBox="0 0 36 48" fill="none" xmlns="http://www.w3.org/2000/svg">
<path d="M34.7675 23.5039L12.8925 46.9414C12.6607 47.1888 12.3547 47.3541 12.0207 47.4123C11.6867 47.4705 11.3429 47.4185 11.041 47.2642C10.7392 47.1099 10.4957 46.8615 10.3473 46.5567C10.199 46.2518 10.1539 45.907 10.2187 45.5742L13.082 31.2519L1.82611 27.0254C1.58438 26.935 1.36881 26.7861 1.19866 26.592C1.02851 26.3979 0.909084 26.1647 0.851049 25.9133C0.793014 25.6618 0.798179 25.3998 0.866082 25.1508C0.933985 24.9018 1.06251 24.6735 1.24018 24.4863L23.1152 1.04881C23.347 0.801422 23.653 0.63614 23.987 0.577909C24.321 0.519678 24.6648 0.571658 24.9667 0.726004C25.2685 0.88035 25.512 1.12869 25.6603 1.43354C25.8087 1.7384 25.8538 2.08323 25.789 2.416L22.9179 16.7539L34.1738 20.9746C34.4137 21.0656 34.6276 21.2144 34.7964 21.4077C34.9652 21.6009 35.0838 21.8329 35.1417 22.0829C35.1997 22.3329 35.1951 22.5933 35.1285 22.8412C35.0618 23.089 34.9352 23.3166 34.7597 23.5039H34.7675Z" fill="#FFCA4F"/>
</svg>
