<svg width="21" height="21" viewBox="0 0 21 21" fill="none" xmlns="http://www.w3.org/2000/svg">
<path d="M17.2071 10.3015L8.45711 19.6765C8.36438 19.7755 8.24198 19.8416 8.10839 19.8649C7.97479 19.8882 7.83724 19.8674 7.7165 19.8056C7.59576 19.7439 7.49837 19.6446 7.43904 19.5226C7.3797 19.4007 7.36164 19.2627 7.38757 19.1296L8.53289 13.4007L4.03054 11.7101C3.93385 11.6739 3.84762 11.6144 3.77956 11.5367C3.7115 11.4591 3.66373 11.3658 3.64052 11.2653C3.6173 11.1647 3.61937 11.0599 3.64653 10.9603C3.67369 10.8607 3.7251 10.7694 3.79617 10.6945L12.5462 1.31948C12.6389 1.22052 12.7613 1.15441 12.8949 1.13111C13.0285 1.10782 13.166 1.12861 13.2868 1.19035C13.4075 1.25209 13.5049 1.35143 13.5642 1.47337C13.6236 1.59531 13.6416 1.73324 13.6157 1.86635L12.4673 7.60151L16.9696 9.28979C17.0656 9.3262 17.1511 9.38569 17.2187 9.46301C17.2862 9.54033 17.3336 9.63309 17.3568 9.7331C17.38 9.83311 17.3781 9.93728 17.3515 10.0364C17.3248 10.1356 17.2742 10.2266 17.204 10.3015H17.2071Z" fill="white"/>
</svg>
