<svg width="17" height="17" viewBox="0 0 17 17" fill="none" xmlns="http://www.w3.org/2000/svg">
<path d="M14.9125 3.59564C14.8355 3.41784 14.708 3.26658 14.5458 3.16068C14.3835 3.05477 14.1937 2.99891 14 3.00002L2.99998 3.00002C2.80644 3.0004 2.61717 3.05694 2.45512 3.16277C2.29308 3.26861 2.16523 3.41919 2.08709 3.59626C2.00894 3.77332 1.98386 3.96926 2.01488 4.1603C2.04591 4.35134 2.1317 4.52928 2.26186 4.67252L2.26686 4.67814L6.49998 9.19814L6.49998 14C6.49994 14.181 6.54902 14.3586 6.64198 14.5139C6.73494 14.6692 6.86831 14.7963 7.02785 14.8818C7.1874 14.9672 7.36714 15.0078 7.54792 14.9991C7.72869 14.9904 7.90373 14.9329 8.05436 14.8325L10.0544 13.4988C10.1915 13.4074 10.3039 13.2837 10.3816 13.1384C10.4594 12.9932 10.5 12.831 10.5 12.6663L10.5 9.19814L14.7337 4.67814L14.7387 4.67252C14.8703 4.52993 14.9569 4.35176 14.9878 4.16025C15.0187 3.96873 14.9925 3.77236 14.9125 3.59564ZM9.77123 8.51752C9.59754 8.70163 9.50054 8.94502 9.49998 9.19814V12.6663L7.49998 14L7.49998 9.19814C7.50057 8.94411 7.40397 8.69949 7.22998 8.51439L2.99998 4.00002L14 4.00002L9.77123 8.51752Z" fill="#565D6D"/>
</svg>
