<svg width="12" height="12" viewBox="0 0 12 12" fill="none" xmlns="http://www.w3.org/2000/svg">
<path d="M8.14641 2.41312C7.56347 1.79882 6.9075 1.25823 6.19312 0.803432C6.1348 0.76839 6.06804 0.749878 6 0.749878C5.93196 0.749878 5.8652 0.76839 5.80687 0.803432C5.0925 1.25823 4.43653 1.79882 3.85359 2.41312C2.55891 3.77249 1.875 5.27203 1.875 6.74999C1.875 7.84401 2.3096 8.89322 3.08318 9.66681C3.85677 10.4404 4.90598 10.875 6 10.875C7.09402 10.875 8.14323 10.4404 8.91682 9.66681C9.6904 8.89322 10.125 7.84401 10.125 6.74999C10.125 5.27203 9.44109 3.77249 8.14641 2.41312ZM4.5 8.62499C4.5 7.32796 5.55609 6.40874 6 6.07968C6.44438 6.40781 7.5 7.32796 7.5 8.62499C7.5 9.02282 7.34196 9.40435 7.06066 9.68565C6.77936 9.96696 6.39782 10.125 6 10.125C5.60218 10.125 5.22064 9.96696 4.93934 9.68565C4.65804 9.40435 4.5 9.02282 4.5 8.62499Z" fill="#6CFF79"/>
</svg>
