<svg width="21" height="21" viewBox="0 0 21 21" fill="none" xmlns="http://www.w3.org/2000/svg">
<path d="M16.7335 10.7916C15.4252 7.39162 10.7668 7.20829 11.8918 2.26662C11.9752 1.89995 11.5835 1.61662 11.2668 1.80829C8.24183 3.59162 6.06683 7.16662 7.89183 11.85C8.04183 12.2333 7.59183 12.5916 7.26683 12.3416C5.7585 11.2 5.60016 9.55829 5.7335 8.38329C5.7835 7.94995 5.21683 7.74162 4.97516 8.09995C4.4085 8.96662 3.8335 10.3666 3.8335 12.475C4.15016 17.1416 8.09183 18.575 9.5085 18.7583C11.5335 19.0166 13.7252 18.6416 15.3002 17.2C17.0335 15.5916 17.6668 13.025 16.7335 10.7916ZM9.00016 14.9833C10.2002 14.6916 10.8168 13.825 10.9835 13.0583C11.2585 11.8666 10.1835 10.7 10.9085 8.81662C11.1835 10.375 13.6335 11.35 13.6335 13.05C13.7002 15.1583 11.4168 16.9666 9.00016 14.9833Z" fill="white"/>
</svg>
