<svg width="25" height="24" viewBox="0 0 25 24" fill="none" xmlns="http://www.w3.org/2000/svg">
<path d="M16.7928 4.82625C15.6269 3.59765 14.315 2.51648 12.8862 1.60687C12.7696 1.53679 12.6361 1.49977 12.5 1.49977C12.3639 1.49977 12.2304 1.53679 12.1137 1.60687C10.685 2.51648 9.37305 3.59765 8.20719 4.82625C5.61781 7.545 4.25 10.5441 4.25 13.5C4.25 15.688 5.11919 17.7865 6.66637 19.3336C8.21354 20.8808 10.312 21.75 12.5 21.75C14.688 21.75 16.7865 20.8808 18.3336 19.3336C19.8808 17.7865 20.75 15.688 20.75 13.5C20.75 10.5441 19.3822 7.545 16.7928 4.82625ZM9.5 17.25C9.5 14.6559 11.6122 12.8175 12.5 12.1594C13.3887 12.8156 15.5 14.6559 15.5 17.25C15.5 18.0456 15.1839 18.8087 14.6213 19.3713C14.0587 19.9339 13.2956 20.25 12.5 20.25C11.7044 20.25 10.9413 19.9339 10.3787 19.3713C9.81607 18.8087 9.5 18.0456 9.5 17.25Z" fill="#EC3237"/>
</svg>
