<svg width="25" height="24" viewBox="0 0 25 24" fill="none" xmlns="http://www.w3.org/2000/svg">
<path d="M16.7928 4.82648C15.6269 3.59789 14.315 2.51671 12.8862 1.60711C12.7696 1.53702 12.6361 1.5 12.5 1.5C12.3639 1.5 12.2304 1.53702 12.1137 1.60711C10.685 2.51671 9.37305 3.59789 8.20719 4.82648C5.61781 7.54523 4.25 10.5443 4.25 13.5002C4.25 15.6883 5.11919 17.7867 6.66637 19.3339C8.21354 20.881 10.312 21.7502 12.5 21.7502C14.688 21.7502 16.7865 20.881 18.3336 19.3339C19.8808 17.7867 20.75 15.6883 20.75 13.5002C20.75 10.5443 19.3822 7.54523 16.7928 4.82648ZM9.5 17.2502C9.5 14.6562 11.6122 12.8177 12.5 12.1596C13.3888 12.8159 15.5 14.6562 15.5 17.2502C15.5 18.0459 15.1839 18.8089 14.6213 19.3716C14.0587 19.9342 13.2956 20.2502 12.5 20.2502C11.7044 20.2502 10.9413 19.9342 10.3787 19.3716C9.81607 18.8089 9.5 18.0459 9.5 17.2502Z" fill="#565D6D"/>
</svg>
