<svg width="10" height="13" viewBox="0 0 10 13" fill="none" xmlns="http://www.w3.org/2000/svg">
<path d="M9.36337 7.20421C8.44754 4.82421 5.18671 4.69587 5.97421 1.23671C6.03254 0.980041 5.75837 0.781708 5.53671 0.915875C3.41921 2.16421 1.89671 4.66671 3.17421 7.94504C3.27921 8.21337 2.96421 8.46421 2.73671 8.28921C1.68087 7.49004 1.57004 6.34087 1.66337 5.51837C1.69837 5.21504 1.30171 5.06921 1.13254 5.32004C0.735874 5.92671 0.333374 6.90671 0.333374 8.38254C0.555041 11.6492 3.31421 12.6525 4.30587 12.7809C5.72337 12.9617 7.25754 12.6992 8.36004 11.69C9.57337 10.5642 10.0167 8.76754 9.36337 7.20421ZM3.95004 10.1384C4.79004 9.93421 5.22171 9.32754 5.33837 8.79087C5.53087 7.95671 4.77837 7.14004 5.28587 5.82171C5.47837 6.91254 7.19337 7.59504 7.19337 8.78504C7.24004 10.2609 5.64171 11.5267 3.95004 10.1384Z" fill="#171A1F"/>
</svg>
