<svg width="24" height="24" viewBox="0 0 24 24" fill="none" xmlns="http://www.w3.org/2000/svg">
<path d="M12 20.4C12.3314 20.4 12.6 20.1314 12.6 19.8C12.6 19.4686 12.3314 19.2 12 19.2C11.6687 19.2 11.4 19.4686 11.4 19.8C11.4 20.1314 11.6687 20.4 12 20.4Z" fill="#323743"/>
<path d="M12 20.4C12.3314 20.4 12.6 20.1314 12.6 19.8C12.6 19.4686 12.3314 19.2 12 19.2C11.6687 19.2 11.4 19.4686 11.4 19.8C11.4 20.1314 11.6687 20.4 12 20.4Z" stroke="#323743" stroke-width="1.44" stroke-miterlimit="10" stroke-linecap="square"/>
<path d="M7.60022 4.32C9.14172 3.49776 10.8535 3.04583 12.6 3C15.9 3 17.4 4.8 17.4 7.3998C17.4 11.4 12 12 12 16.2" stroke="#323743" stroke-width="1.44" stroke-miterlimit="10" stroke-linecap="square"/>
</svg>
