<svg width="24" height="24" viewBox="0 0 24 24" fill="none" xmlns="http://www.w3.org/2000/svg">
<path d="M21 11.4C20.8638 11.4 20.7312 11.3538 20.625 11.2686L12 4.368L3.37499 11.2686C3.11639 11.4756 2.73839 11.4336 2.53139 11.175C2.32439 10.9164 2.36639 10.5384 2.62499 10.3314L11.625 3.1314C11.844 2.9556 12.156 2.9556 12.375 3.1314L21.375 10.3314C21.6336 10.5384 21.6756 10.9158 21.4686 11.175C21.3546 11.3172 21.1824 11.4006 21 11.4Z" fill="white"/>
<path d="M12 5.9052L4.80005 11.6652V19.5C4.80005 20.3286 5.47145 21 6.30005 21H10.2V16.8C10.2 16.4688 10.4688 16.2 10.8 16.2H13.2C13.5312 16.2 13.8 16.4688 13.8 16.8V21H17.7C18.5286 21 19.2 20.3286 19.2 19.5V11.6652L12 5.9052Z" fill="white"/>
</svg>
