<svg width="256" height="256" viewBox="0 0 256 256" fill="none" xmlns="http://www.w3.org/2000/svg">
<path d="M240 208H224V115.55C224 113.336 223.541 111.145 222.651 109.118C221.761 107.09 220.46 105.269 218.83 103.77L138.83 28.29C138.791 28.2559 138.754 28.2191 138.72 28.18C135.775 25.5013 131.936 24.017 127.955 24.017C123.974 24.017 120.135 25.5013 117.19 28.18L117.08 28.29L37.17 103.77C35.54 105.269 34.2388 107.09 33.3489 109.118C32.459 111.145 31.9997 113.336 32 115.55V208H16C13.8783 208 11.8434 208.843 10.3431 210.343C8.84285 211.843 8 213.878 8 216C8 218.122 8.84285 220.157 10.3431 221.657C11.8434 223.157 13.8783 224 16 224H240C242.122 224 244.157 223.157 245.657 221.657C247.157 220.157 248 218.122 248 216C248 213.878 247.157 211.843 245.657 210.343C244.157 208.843 242.122 208 240 208ZM152 208H104V160C104 157.878 104.843 155.843 106.343 154.343C107.843 152.843 109.878 152 112 152H144C146.122 152 148.157 152.843 149.657 154.343C151.157 155.843 152 157.878 152 160V208Z" fill="#F5C747"/>
</svg>
