<svg width="21" height="21" viewBox="0 0 21 21" fill="none" xmlns="http://www.w3.org/2000/svg">
<path d="M10.5 15.5C9.9 15.5 9.5 15.9 9.5 16.5V17.5C9.5 18.1 9.9 18.5 10.5 18.5C11.1 18.5 11.5 18.1 11.5 17.5V16.5C11.5 15.9 11.1 15.5 10.5 15.5Z" fill="white"/>
<path d="M6.5 13.5C5.9 13.5 5.5 13.9 5.5 14.5L5.5 15.5C5.5 16.1 5.9 16.5 6.5 16.5C7.1 16.5 7.5 16.1 7.5 15.5V14.5C7.5 13.9 7.1 13.5 6.5 13.5Z" fill="white"/>
<path d="M14.5 13.5C13.9 13.5 13.5 13.9 13.5 14.5V15.5C13.5 16.1 13.9 16.5 14.5 16.5C15.1 16.5 15.5 16.1 15.5 15.5V14.5C15.5 13.9 15.1 13.5 14.5 13.5Z" fill="white"/>
<path d="M17.4 10.5C17 7.4 14.6 5 11.5 4.6V2.5L9.5 2.5V4.6C6.4 5 4 7.4 3.6 10.5C2.9 10.5 2.5 11 2.5 11.5C2.5 12.1 2.9 12.5 3.5 12.5L17.5 12.5C18.1 12.5 18.5 12.1 18.5 11.5C18.5 11 18.1 10.5 17.4 10.5Z" fill="white"/>
</svg>
