<svg width="20" height="20" viewBox="0 0 20 20" fill="none" xmlns="http://www.w3.org/2000/svg">
<g clip-path="url(#clip0_2_27326)">
<path d="M9.99996 10.8334C11.3808 10.8334 12.5 11.9526 12.5 13.3334C12.5 14.0417 12.2058 14.6801 11.7333 15.1351L10.1416 16.6667H12.5V18.3334L7.49996 18.3334L7.49996 16.8967L10.5775 13.9342C10.7358 13.7817 10.8333 13.5692 10.8333 13.3334C10.8333 12.8734 10.46 12.5001 9.99996 12.5001C9.53996 12.5001 9.16663 12.8734 9.16663 13.3334H7.49996C7.49996 11.9526 8.61913 10.8334 9.99996 10.8334ZM15 10.8334L15 14.1667H16.6666L16.6666 10.8334H18.3333V18.3334H16.6666V15.8334H13.3333L13.3333 10.8334H15ZM3.33329 10.0001C3.33329 12.1059 4.30913 13.9834 5.83329 15.2051V17.2184C3.34246 15.7776 1.66663 13.0851 1.66663 10.0001H3.33329ZM9.99996 1.66675C14.3208 1.66675 17.8741 4.95591 18.2916 9.16675H16.615C16.205 5.87841 13.4 3.33341 9.99996 3.33341C7.94663 3.33341 6.10996 4.26175 4.88746 5.72091L6.66663 7.50008L1.66663 7.50008L1.66663 2.50008L3.70579 4.53841C5.23329 2.78008 7.48663 1.66675 9.99996 1.66675Z" fill="white"/>
</g>
<defs>
<clipPath id="clip0_2_27326">
<rect width="20" height="20" fill="white"/>
</clipPath>
</defs>
</svg>
