<svg width="24" height="24" viewBox="0 0 24 24" fill="none" xmlns="http://www.w3.org/2000/svg">
<path d="M19.8 21.6L4.19998 21.6C4.04085 21.6 3.88823 21.5368 3.77571 21.4243C3.66319 21.3117 3.59998 21.1591 3.59998 21C3.59998 20.8409 3.66319 20.6883 3.77571 20.5757C3.88823 20.4632 4.04085 20.4 4.19998 20.4L19.8 20.4C19.9591 20.4 20.1117 20.4632 20.2242 20.5757C20.3368 20.6883 20.4 20.8409 20.4 21C20.4 21.1591 20.3368 21.3117 20.2242 21.4243C20.1117 21.5368 19.9591 21.6 19.8 21.6Z" fill="#565D6D"/>
<path d="M19.6242 6.17579L16.6242 3.17579C16.5117 3.06331 16.3591 3.00012 16.2 3.00012C16.0409 3.00012 15.8883 3.06331 15.7758 3.17579L5.57579 13.3758C5.50351 13.448 5.45085 13.5374 5.42279 13.6356L4.22279 17.8356C4.19735 17.9249 4.19298 18.0189 4.21002 18.1101C4.22707 18.2014 4.26506 18.2875 4.321 18.3616C4.37695 18.4356 4.44933 18.4957 4.53245 18.5371C4.61556 18.5785 4.70715 18.6 4.79999 18.6C4.85557 18.5999 4.91088 18.5922 4.96439 18.5772L9.16439 17.3772C9.2626 17.3491 9.35203 17.2965 9.42419 17.2242L19.6242 7.02419C19.7367 6.91168 19.7999 6.75909 19.7999 6.59999C19.7999 6.4409 19.7367 6.28831 19.6242 6.17579Z" fill="#565D6D"/>
</svg>
