<svg width="40" height="54" viewBox="0 0 40 54" fill="none" xmlns="http://www.w3.org/2000/svg">
<path d="M38.7798 26.4443L14.2798 52.6943C14.0202 52.9714 13.6775 53.1565 13.3034 53.2217C12.9293 53.287 12.5442 53.2287 12.2061 53.0559C11.868 52.883 11.5953 52.6049 11.4292 52.2634C11.2631 51.922 11.2125 51.5358 11.2851 51.1631L14.492 35.1221L1.88542 30.3884C1.61468 30.2871 1.37324 30.1203 1.18267 29.903C0.992107 29.6856 0.858349 29.4245 0.79335 29.1428C0.728352 28.8611 0.734136 28.5678 0.810187 28.2889C0.886239 28.01 1.03019 27.7543 1.22917 27.5446L25.7292 1.29463C25.9888 1.01755 26.3315 0.832438 26.7056 0.76722C27.0797 0.702001 27.4648 0.760218 27.8029 0.933086C28.1409 1.10595 28.4136 1.38409 28.5798 1.72553C28.7459 2.06697 28.7965 2.45318 28.7239 2.82588L25.5082 18.8843L38.1148 23.6115C38.3835 23.7135 38.623 23.88 38.8121 24.0965C39.0012 24.313 39.1341 24.5728 39.1989 24.8528C39.2638 25.1328 39.2587 25.4245 39.1841 25.7021C39.1094 25.9797 38.9676 26.2346 38.771 26.4443H38.7798Z" fill="#F5C747"/>
</svg>
