<svg width="38" height="49" viewBox="0 0 38 49" fill="none" xmlns="http://www.w3.org/2000/svg">
<path d="M36.4533 25.8166C32.7899 16.2966 19.7466 15.7833 22.8966 1.94659C23.1299 0.91992 22.0333 0.126587 21.1466 0.663254C12.6766 5.65659 6.58658 15.6666 11.6966 28.7799C12.1166 29.8533 10.8566 30.8566 9.94658 30.1566C5.72325 26.9599 5.27992 22.3633 5.65325 19.0733C5.79325 17.8599 4.20658 17.2766 3.52992 18.2799C1.94325 20.7066 0.333252 24.6266 0.333252 30.5299C1.21992 43.5966 12.2566 47.6099 16.2233 48.1233C21.8933 48.8466 28.0299 47.7966 32.4399 43.7599C37.2933 39.2566 39.0666 32.0699 36.4533 25.8166ZM14.7999 37.5532C18.1599 36.7366 19.8866 34.3099 20.3533 32.1633C21.1233 28.8266 18.1133 25.5599 20.1433 20.2866C20.9132 24.6499 27.7733 27.3799 27.7733 32.1399C27.9599 38.0433 21.5666 43.1066 14.7999 37.5532Z" fill="#1DD75B"/>
</svg>
