<svg width="40" height="50" viewBox="0 0 40 50" fill="none" xmlns="http://www.w3.org/2000/svg">
<path d="M30.0625 9.44531C27.3605 6.3247 24.3193 3.51468 20.9953 1.06718C20.7011 0.861059 20.3505 0.750488 19.9912 0.750488C19.632 0.750488 19.2814 0.861059 18.9872 1.06718C15.6693 3.5157 12.6341 6.32568 9.9375 9.44531C3.92406 16.3512 0.75 23.6312 0.75 30.5C0.75 35.6054 2.77812 40.5017 6.3882 44.1118C9.99827 47.7219 14.8946 49.75 20 49.75C25.1054 49.75 30.0017 47.7219 33.6118 44.1118C37.2219 40.5017 39.25 35.6054 39.25 30.5C39.25 23.6312 36.0759 16.3512 30.0625 9.44531ZM32.2172 32.5431C31.7634 35.0778 30.5439 37.4126 28.723 39.2332C26.902 41.0537 24.5669 42.2727 22.0322 42.7259C21.9388 42.7409 21.8445 42.749 21.75 42.75C21.311 42.7499 20.8881 42.5848 20.5652 42.2875C20.2422 41.9902 20.0428 41.5823 20.0065 41.1449C19.9701 40.7074 20.0995 40.2723 20.369 39.9257C20.6385 39.5792 21.0283 39.3466 21.4612 39.2741C25.0859 38.6637 28.1616 35.5881 28.7762 31.9569C28.854 31.4991 29.1104 31.091 29.489 30.8223C29.8677 30.5536 30.3376 30.4463 30.7953 30.5241C31.2531 30.6018 31.6612 30.8582 31.9299 31.2368C32.1986 31.6155 32.3059 32.0854 32.2281 32.5431H32.2172Z" fill="#71B2FF"/>
</svg>
