<svg width="14" height="14" viewBox="0 0 14 14" fill="none" xmlns="http://www.w3.org/2000/svg">
<path d="M10.5001 4.8999H7.82046L8.73536 1.85035C8.76721 1.7443 8.74691 1.62985 8.68076 1.54095C8.61496 1.45205 8.51066 1.3999 8.40006 1.3999L4.90006 1.3999C4.74151 1.3999 4.60256 1.50665 4.56196 1.6596L3.16196 6.9096C3.13396 7.0146 3.15636 7.12695 3.22251 7.21305C3.28866 7.29915 3.39121 7.3499 3.50006 7.3499L5.90036 7.3499L5.25321 12.2037C5.23186 12.3637 5.32251 12.5173 5.47301 12.5761C5.51431 12.5922 5.55736 12.5999 5.60006 12.5999C5.71171 12.5999 5.81986 12.5464 5.88706 12.4505L10.7871 5.45045C10.862 5.3437 10.8711 5.20405 10.8109 5.0882C10.7503 4.9727 10.6306 4.8999 10.5001 4.8999Z" fill="#171A1F"/>
</svg>
