<svg width="25" height="24" viewBox="0 0 25 24" fill="none" xmlns="http://www.w3.org/2000/svg">
<path d="M20.5484 11.7617L10.0484 23.0117C9.93711 23.1305 9.79023 23.2098 9.62992 23.2377C9.4696 23.2657 9.30455 23.2407 9.15966 23.1667C9.01476 23.0926 8.8979 22.9734 8.8267 22.827C8.7555 22.6807 8.73382 22.5152 8.76494 22.3555L10.1393 15.4808L4.73651 13.452C4.62047 13.4086 4.517 13.3372 4.43533 13.244C4.35366 13.1508 4.29633 13.0389 4.26847 12.9182C4.24062 12.7975 4.2431 12.6718 4.27569 12.5522C4.30828 12.4327 4.36998 12.3231 4.45526 12.2333L14.9553 0.983274C15.0665 0.864526 15.2134 0.785191 15.3737 0.75724C15.534 0.729289 15.6991 0.75424 15.844 0.828326C15.9889 0.902412 16.1057 1.02161 16.1769 1.16794C16.2481 1.31428 16.2698 1.47979 16.2387 1.63952L14.8606 8.52171L20.2634 10.5476C20.3786 10.5913 20.4812 10.6627 20.5622 10.7555C20.6433 10.8483 20.7002 10.9596 20.728 11.0796C20.7558 11.1996 20.7536 11.3246 20.7216 11.4436C20.6897 11.5626 20.6289 11.6718 20.5446 11.7617H20.5484Z" fill="#EC3237"/>
</svg>
