<svg width="36" height="36" viewBox="0 0 36 36" fill="none" xmlns="http://www.w3.org/2000/svg">
<rect width="36" height="36" rx="18" fill="#EC3237"/>
<path d="M24.05 13.16L26.25 12.5L26.25 23.5L20.75 25.7L15.25 23.5L9.75 25.7L9.75 14.7L11.95 13.82" stroke="white" stroke-width="1.32" stroke-miterlimit="10" stroke-linecap="square"/>
<path d="M21.8499 13.4999C21.8499 15.8143 17.9999 19.65 17.9999 19.65C17.9999 19.65 14.1499 15.8143 14.1499 13.4999C14.1499 11.1272 16.1393 9.75 17.9999 9.75C19.8606 9.75 21.8499 11.1272 21.8499 13.4999Z" stroke="white" stroke-width="1.32" stroke-miterlimit="10" stroke-linecap="square"/>
<path d="M17.9999 14.7C18.6074 14.7 19.0999 14.2075 19.0999 13.6C19.0999 12.9925 18.6074 12.5 17.9999 12.5C17.3924 12.5 16.8999 12.9925 16.8999 13.6C16.8999 14.2075 17.3924 14.7 17.9999 14.7Z" stroke="white" stroke-width="1.32" stroke-miterlimit="10" stroke-linecap="square"/>
</svg>
