<svg width="21" height="20" viewBox="0 0 21 20" fill="none" xmlns="http://www.w3.org/2000/svg">
<g clip-path="url(#clip0_1_21205)">
<path d="M15.5 6.66683L17.1667 6.66683C17.3877 6.66683 17.5996 6.75463 17.7559 6.91091C17.9122 7.06719 18 7.27915 18 7.50016L18 17.5002C18 17.7212 17.9122 17.9331 17.7559 18.0894C17.5996 18.2457 17.3877 18.3335 17.1667 18.3335L3.83333 18.3335C3.61232 18.3335 3.40036 18.2457 3.24408 18.0894C3.0878 17.9331 3 17.7212 3 17.5002L3 7.50016C3 7.27915 3.0878 7.06719 3.24408 6.91091C3.40036 6.75463 3.61232 6.66683 3.83333 6.66683L5.5 6.66683V5.8335C5.5 4.50741 6.02678 3.23564 6.96447 2.29796C7.90215 1.36028 9.17392 0.833496 10.5 0.833496C11.8261 0.833496 13.0979 1.36028 14.0355 2.29796C14.9732 3.23564 15.5 4.50741 15.5 5.8335L15.5 6.66683ZM13.8333 6.66683L13.8333 5.8335C13.8333 4.94944 13.4821 4.10159 12.857 3.47647C12.2319 2.85135 11.3841 2.50016 10.5 2.50016C9.61594 2.50016 8.7681 2.85135 8.14298 3.47647C7.51786 4.10159 7.16667 4.94944 7.16667 5.8335V6.66683L13.8333 6.66683ZM9.66667 11.6668L9.66667 13.3335H11.3333V11.6668H9.66667ZM6.33333 11.6668L6.33333 13.3335H8L8 11.6668H6.33333ZM13 11.6668V13.3335H14.6667V11.6668H13Z" fill="white"/>
</g>
<defs>
<clipPath id="clip0_1_21205">
<rect width="20" height="20" fill="white" transform="translate(0.5)"/>
</clipPath>
</defs>
</svg>
