<svg width="32" height="32" viewBox="0 0 32 32" fill="none" xmlns="http://www.w3.org/2000/svg">
<path d="M27.1734 11.4267L25.5334 13.8934C26.3243 15.4708 26.7115 17.2199 26.6603 18.9837C26.6091 20.7476 26.1211 22.4712 25.2401 24.0001L6.76007 24.0001C5.61496 22.0136 5.14046 19.7109 5.40692 17.4335C5.67338 15.1561 6.66661 13.0252 8.23937 11.3567C9.81213 9.68812 11.8807 8.5708 14.1384 8.17034C16.3961 7.76988 18.7227 8.10759 20.7734 9.13341L23.2401 7.49341C20.7287 5.88304 17.7498 5.16142 14.7799 5.444C11.81 5.72657 9.02066 6.99701 6.85806 9.0521C4.69545 11.1072 3.28455 13.8282 2.85102 16.7798C2.4175 19.7315 2.9864 22.7433 4.46673 25.3334C4.69941 25.7364 5.03352 26.0716 5.43584 26.3055C5.83816 26.5394 6.2947 26.6639 6.76007 26.6667L25.2267 26.6667C25.6966 26.6686 26.1587 26.5463 26.5661 26.3121C26.9735 26.078 27.3118 25.7404 27.5467 25.3334C28.7752 23.2053 29.3918 20.7791 29.3282 18.3227C29.2647 15.8663 28.5236 13.4752 27.1867 11.4134L27.1734 11.4267ZM14.1201 20.5467C14.3677 20.7947 14.6618 20.9914 14.9856 21.1256C15.3093 21.2598 15.6563 21.3288 16.0067 21.3288C16.3572 21.3288 16.7042 21.2598 17.0279 21.1256C17.3516 20.9914 17.6457 20.7947 17.8934 20.5467L25.4401 9.22675L14.1201 16.7734C13.8721 17.0211 13.6754 17.3152 13.5412 17.6389C13.407 17.9626 13.338 18.3096 13.338 18.6601C13.338 19.0105 13.407 19.3575 13.5412 19.6813C13.6754 20.005 13.8721 20.2991 14.1201 20.5467Z" fill="#171A1F"/>
</svg>
