<svg width="16" height="16" viewBox="0 0 16 16" fill="none" xmlns="http://www.w3.org/2000/svg">
<path d="M13.5866 5.71333L12.7666 6.94666C13.1621 7.73538 13.3557 8.60988 13.3301 9.49181C13.3045 10.3737 13.0605 11.2355 12.62 12L3.37997 12C2.80742 11.0067 2.57017 9.85541 2.7034 8.71671C2.83663 7.578 3.33325 6.51254 4.11963 5.67828C4.906 4.84401 5.94028 4.28536 7.06913 4.08513C8.19798 3.88489 9.3613 4.05375 10.3866 4.56666L11.62 3.74666C10.3643 2.94147 8.87485 2.58066 7.3899 2.72195C5.90494 2.86324 4.51027 3.49846 3.42897 4.526C2.34767 5.55355 1.64221 6.91404 1.42545 8.38987C1.20869 9.8657 1.49314 11.3716 2.23331 12.6667C2.34965 12.8682 2.5167 13.0357 2.71786 13.1527C2.91902 13.2697 3.14729 13.3319 3.37997 13.3333L12.6133 13.3333C12.8483 13.3343 13.0793 13.2731 13.283 13.156C13.4867 13.039 13.6558 12.8701 13.7733 12.6667C14.3876 11.6026 14.6958 10.3895 14.6641 9.1613C14.6323 7.93309 14.2617 6.73754 13.5933 5.70666L13.5866 5.71333ZM7.05997 10.2733C7.1838 10.3973 7.33085 10.4956 7.49272 10.5627C7.65458 10.6298 7.82809 10.6644 8.00331 10.6644C8.17853 10.6644 8.35203 10.6298 8.51389 10.5627C8.67576 10.4956 8.82281 10.3973 8.94664 10.2733L12.72 4.61333L7.05997 8.38666C6.936 8.51049 6.83766 8.65754 6.77056 8.81941C6.70346 8.98127 6.66892 9.15477 6.66892 9.32999C6.66892 9.50522 6.70346 9.67872 6.77056 9.84058C6.83766 10.0024 6.936 10.1495 7.05997 10.2733Z" fill="white"/>
</svg>
