<svg width="24" height="24" viewBox="0 0 24 24" fill="none" xmlns="http://www.w3.org/2000/svg">
<path d="M19.2 11.9999V7.1999H15.6L7.8 7.1999L4.8 7.1999C3.8058 7.1999 3 6.3941 3 5.3999L3 17.9999C3 19.3253 4.0746 20.3999 5.4 20.3999L19.2 20.3999V15.5999" stroke="#EC3237" stroke-width="1.44" stroke-miterlimit="10" stroke-linecap="square"/>
<path d="M21 15.6L16.8 15.6C15.8058 15.6 15 14.7942 15 13.8C15 12.8058 15.8058 12 16.8 12L21 12V15.6Z" stroke="#EC3237" stroke-width="1.44" stroke-miterlimit="10" stroke-linecap="square"/>
<path d="M15.6 4.8001V3.6001L4.8 3.6001C3.8058 3.6001 3 4.4059 3 5.4001C3 6.3943 3.8058 7.2001 4.8 7.2001" stroke="#EC3237" stroke-width="1.44" stroke-miterlimit="10" stroke-linecap="square"/>
</svg>
