<svg width="20" height="20" viewBox="0 0 20 20" fill="none" xmlns="http://www.w3.org/2000/svg">
<path d="M16.85 11.25C16.25 11.4 15.7 11.5 15.1 11.5C11.45 11.5 8.5 8.54995 8.5 4.89995C8.5 4.34995 8.6 3.74995 8.75 3.14995C8.8 2.99995 8.75 2.79995 8.6 2.64995C8.5 2.49995 8.3 2.44995 8.1 2.49995C4.8 3.39995 2.5 6.44995 2.5 9.84995C2.5 14.1 5.9 17.5 10.15 17.5C13.6 17.5 16.6 15.2 17.5 11.9C17.55 11.75 17.5 11.55 17.35 11.4C17.2 11.25 17.05 11.2 16.85 11.25Z" fill="white"/>
<path d="M11.5 4.5H12V5C12 5.3 12.2 5.5 12.5 5.5C12.8 5.5 13 5.3 13 5V4.5H13.5C13.8 4.5 14 4.3 14 4C14 3.7 13.8 3.5 13.5 3.5L13 3.5V3C13 2.7 12.8 2.5 12.5 2.5C12.2 2.5 12 2.7 12 3V3.5H11.5C11.2 3.5 11 3.7 11 4C11 4.3 11.2 4.5 11.5 4.5Z" fill="white"/>
<path d="M15 8.5H15.5V9C15.5 9.3 15.7 9.5 16 9.5C16.3 9.5 16.5 9.3 16.5 9V8.5H17C17.3 8.5 17.5 8.3 17.5 8C17.5 7.7 17.3 7.5 17 7.5L16.5 7.5V7C16.5 6.7 16.3 6.5 16 6.5C15.7 6.5 15.5 6.7 15.5 7V7.5H15C14.7 7.5 14.5 7.7 14.5 8C14.5 8.3 14.7 8.5 15 8.5Z" fill="white"/>
</svg>
