<svg width="24" height="24" viewBox="0 0 24 24" fill="none" xmlns="http://www.w3.org/2000/svg">
<rect width="24" height="24" fill="#F5F5F5"/>
<g id="w-profile menu" clip-path="url(#clip0_0_1)" filter="url(#filter0_d_0_1)">
<rect width="1440" height="1136" transform="translate(-1141 -26)" fill="#FAFAFB"/>
<g id="Container 326" filter="url(#filter1_dd_0_1)">
<rect width="1172" height="76" transform="translate(-873 -26)" fill="white"/>
<g id="Bell 39">
<path id="Vector" d="M10.2 20.2332C10.4329 20.4757 10.7124 20.6686 11.0217 20.8003C11.3311 20.9321 11.6638 21 12 21C12.3362 21 12.669 20.9321 12.9783 20.8003C13.2876 20.6686 13.5671 20.4757 13.8 20.2332" stroke="#171A1F" stroke-width="1.44" stroke-miterlimit="10" stroke-linecap="square"/>
<path id="Vector_2" d="M18 11.4V8.94C17.9525 7.36935 17.3033 5.877 16.1866 4.77147C15.0699 3.66594 13.5711 3.03175 12 3C10.4231 3.0453 8.92311 3.69198 7.80756 4.80753C6.69201 5.92308 6.04533 7.42303 6.00003 9V11.4C6.00003 14.1 3.84003 14.58 3.84003 16.08C3.84003 17.46 7.02003 18.54 12 18.54C16.98 18.54 20.16 17.46 20.16 16.08C20.16 14.58 18 14.1 18 11.4Z" stroke="#171A1F" stroke-width="1.44" stroke-miterlimit="10" stroke-linecap="square"/>
</g>
<g id="Circle 47" clip-path="url(#clip1_0_1)">
<path id="Vector_3" d="M20.25 6C20.25 6.64279 20.0594 7.27114 19.7023 7.8056C19.3452 8.34006 18.8376 8.75662 18.2437 9.00261C17.6499 9.24859 16.9964 9.31295 16.366 9.18755C15.7355 9.06215 15.1564 8.75262 14.7019 8.2981C14.2474 7.84358 13.9379 7.26448 13.8124 6.63404C13.687 6.00361 13.7514 5.35014 13.9974 4.75628C14.2434 4.16242 14.6599 3.65484 15.1944 3.29772C15.7289 2.94061 16.3572 2.75 17 2.75C17.8616 2.75108 18.6877 3.09383 19.2969 3.70309C19.9062 4.31235 20.2489 5.13838 20.25 6Z" fill="#EC3237"/>
</g>
</g>
</g>
<defs>
<filter id="filter0_d_0_1" x="-1147" y="-29" width="1452" height="1148" filterUnits="userSpaceOnUse" color-interpolation-filters="sRGB">
<feFlood flood-opacity="0" result="BackgroundImageFix"/>
<feColorMatrix in="SourceAlpha" type="matrix" values="0 0 0 0 0 0 0 0 0 0 0 0 0 0 0 0 0 0 127 0" result="hardAlpha"/>
<feOffset dy="3"/>
<feGaussianBlur stdDeviation="3"/>
<feColorMatrix type="matrix" values="0 0 0 0 0.0705882 0 0 0 0 0.0588235 0 0 0 0 0.156863 0 0 0 0.12 0"/>
<feBlend mode="normal" in2="BackgroundImageFix" result="effect1_dropShadow_0_1"/>
<feBlend mode="normal" in="SourceGraphic" in2="effect1_dropShadow_0_1" result="shape"/>
</filter>
<filter id="filter1_dd_0_1" x="-875" y="-28" width="1176" height="80" filterUnits="userSpaceOnUse" color-interpolation-filters="sRGB">
<feFlood flood-opacity="0" result="BackgroundImageFix"/>
<feColorMatrix in="SourceAlpha" type="matrix" values="0 0 0 0 0 0 0 0 0 0 0 0 0 0 0 0 0 0 127 0" result="hardAlpha"/>
<feOffset/>
<feGaussianBlur stdDeviation="0.5"/>
<feColorMatrix type="matrix" values="0 0 0 0 0.0901961 0 0 0 0 0.101961 0 0 0 0 0.121569 0 0 0 0.07 0"/>
<feBlend mode="normal" in2="BackgroundImageFix" result="effect1_dropShadow_0_1"/>
<feColorMatrix in="SourceAlpha" type="matrix" values="0 0 0 0 0 0 0 0 0 0 0 0 0 0 0 0 0 0 127 0" result="hardAlpha"/>
<feOffset/>
<feGaussianBlur stdDeviation="1"/>
<feColorMatrix type="matrix" values="0 0 0 0 0.0901961 0 0 0 0 0.101961 0 0 0 0 0.121569 0 0 0 0.12 0"/>
<feBlend mode="normal" in2="effect1_dropShadow_0_1" result="effect2_dropShadow_0_1"/>
<feBlend mode="normal" in="SourceGraphic" in2="effect2_dropShadow_0_1" result="shape"/>
</filter>
<clipPath id="clip0_0_1">
<rect width="1440" height="1136" fill="white" transform="translate(-1141 -26)"/>
</clipPath>
<clipPath id="clip1_0_1">
<rect width="8" height="8" fill="white" transform="translate(13 2)"/>
</clipPath>
</defs>
</svg>
