<svg width="20" height="20" viewBox="0 0 20 20" fill="none" xmlns="http://www.w3.org/2000/svg">
<path d="M14.5 7.5L5.5 7.5L5.5 13.5L14.5 13.5L14.5 7.5Z" stroke="#171A1F" stroke-width="1.2" stroke-miterlimit="10" stroke-linecap="square"/>
<path d="M10 11.5C10.5523 11.5 11 11.0523 11 10.5C11 9.94772 10.5523 9.5 10 9.5C9.44772 9.5 9 9.94772 9 10.5C9 11.0523 9.44772 11.5 10 11.5Z" stroke="#171A1F" stroke-width="1.2" stroke-miterlimit="10" stroke-linecap="square"/>
<path d="M12.5 7.5V5C12.5065 4.34362 12.2521 3.71152 11.7927 3.2427C11.3332 2.77388 10.7064 2.50673 10.05 2.5H10C9.34362 2.49347 8.71152 2.7479 8.2427 3.20734C7.77388 3.66679 7.50673 4.29362 7.5 4.95V7.5" stroke="#171A1F" stroke-width="1.2" stroke-miterlimit="10" stroke-linecap="square"/>
<path d="M6.5 18C7.05228 18 7.5 17.5523 7.5 17C7.5 16.4477 7.05228 16 6.5 16C5.94772 16 5.5 16.4477 5.5 17C5.5 17.5523 5.94772 18 6.5 18Z" fill="#171A1F"/>
<path d="M10 18C10.5523 18 11 17.5523 11 17C11 16.4477 10.5523 16 10 16C9.44772 16 9 16.4477 9 17C9 17.5523 9.44772 18 10 18Z" fill="#171A1F"/>
<path d="M13.5 18C14.0523 18 14.5 17.5523 14.5 17C14.5 16.4477 14.0523 16 13.5 16C12.9477 16 12.5 16.4477 12.5 17C12.5 17.5523 12.9477 18 13.5 18Z" fill="#171A1F"/>
<path d="M17 18C17.5523 18 18 17.5523 18 17C18 16.4477 17.5523 16 17 16C16.4477 16 16 16.4477 16 17C16 17.5523 16.4477 18 17 18Z" fill="#171A1F"/>
<path d="M3 18C3.55228 18 4 17.5523 4 17C4 16.4477 3.55228 16 3 16C2.44772 16 2 16.4477 2 17C2 17.5523 2.44772 18 3 18Z" fill="#171A1F"/>
</svg>
