<svg width="320" height="295" viewBox="0 0 320 295" fill="none" xmlns="http://www.w3.org/2000/svg">
<g clip-path="url(#clip0_1_22614)">
<path d="M27.4237 103.51C26.9274 103.831 26.4351 104.372 26.1615 104.898C25.7317 105.728 25.4503 106.825 26.4585 107.288C31.3587 109.526 35.8252 112.774 39.5569 116.662C41.417 118.601 43.1989 120.714 44.4767 123.096C45.1058 124.272 45.5904 125.487 45.7623 126.792C45.8053 127.125 45.8326 127.462 45.8365 127.799C45.8365 127.854 45.8287 128.074 45.8287 128.074C45.8248 128.148 45.8209 128.223 45.8131 128.297C45.7858 128.579 45.7467 128.861 45.692 129.139C45.6802 129.19 45.6177 129.425 45.6099 129.464C45.5826 129.562 45.5513 129.66 45.52 129.758C45.4575 129.939 45.3989 130.162 45.3129 130.354C45.2895 130.386 45.266 130.425 45.2504 130.456C45.1683 130.605 45.0941 130.758 45.0121 130.903C44.9573 131.001 44.8987 131.099 44.8401 131.197C44.8089 131.244 44.7815 131.295 44.7502 131.342C44.6018 131.569 44.6291 131.534 44.8284 131.232C44.7893 131.467 44.4064 131.808 44.2617 131.988C44.1718 132.102 44.0742 132.208 43.9843 132.321C43.6913 132.67 44.0468 132.278 44.0703 132.231C43.9452 132.463 43.6404 132.674 43.449 132.855C43.2341 133.058 43.0113 133.254 42.7847 133.443C42.7261 133.489 42.4408 133.709 42.5073 133.662C42.4252 133.724 42.347 133.783 42.261 133.842C41.7726 134.195 41.2685 134.52 40.7488 134.826C40.6433 134.885 40.5378 134.944 40.4362 135.006C40.401 135.026 40.3736 135.041 40.3502 135.057C40.3268 135.068 40.3033 135.081 40.272 135.096C39.975 135.241 39.682 135.39 39.3811 135.527C38.2518 136.04 36.8958 136.507 35.8174 136.789C35.1374 136.966 34.4496 137.118 33.7619 137.247C33.5626 137.126 33.3672 137.005 33.1679 136.887C30.4052 135.249 27.5018 133.834 24.5164 132.654C21.613 131.506 18.6158 130.593 15.5679 129.923C13.9736 129.574 12.3675 129.293 10.7497 129.077C9.29999 128.885 7.77597 128.638 6.31062 128.755C4.47012 128.901 2.81718 129.99 1.91451 131.604C1.0431 133.164 1.05873 134.841 2.2662 136.185C3.20404 137.232 4.55608 137.776 5.84952 138.232C7.43993 138.792 9.04986 139.313 10.6716 139.775C16.9121 141.554 23.5121 142.542 29.991 141.766C30.5225 141.703 31.05 141.621 31.5775 141.535C32.4372 142.083 33.2695 142.668 34.0628 143.295C35.0358 144.063 36.0206 144.952 36.7669 145.904C37.1186 146.355 37.4351 146.841 37.7047 147.342C37.8454 147.601 37.9743 147.868 38.0876 148.142C38.1424 148.279 38.1971 148.412 38.244 148.553C38.244 148.546 38.3417 148.875 38.3456 148.867C38.4784 149.384 38.5527 149.941 38.5449 150.478C38.541 150.517 38.5253 150.678 38.5214 150.725C38.5097 150.85 38.4941 150.971 38.4745 151.097C38.4589 151.207 38.4237 151.32 38.412 151.43C38.4003 151.477 38.3846 151.52 38.3729 151.567C38.3456 151.657 38.3143 151.747 38.2791 151.834C38.2791 151.841 38.2752 151.845 38.2713 151.849C38.283 151.834 38.2948 151.826 38.3065 151.81C38.2908 151.826 38.2752 151.853 38.2596 151.873C38.2284 151.947 38.1971 151.998 38.1697 152.022C38.1229 152.12 38.0759 152.221 38.0369 152.308C38.0603 152.285 38.0798 152.26 38.1072 152.233C38.0759 152.268 38.0447 152.308 38.0174 152.347C38.0174 152.351 38.0135 152.355 38.0095 152.358C37.9782 152.417 37.9431 152.464 37.9119 152.496C37.9079 152.5 37.904 152.507 37.9001 152.512C37.8337 152.598 37.7633 152.68 37.6969 152.762C37.5406 152.915 37.3843 153.068 37.2202 153.213C37.1694 153.256 36.7942 153.519 37.1186 153.303C37.4507 153.083 37.0482 153.35 37.0053 153.385C36.806 153.531 36.6028 153.668 36.3917 153.801C36.3058 153.856 36.2237 153.907 36.1378 153.957C36.0791 153.993 35.8486 154.114 35.7743 154.158C34.8912 154.592 33.9807 154.953 33.0351 155.235C33.0429 155.235 32.8944 155.274 32.8006 155.302C32.7068 155.325 32.5544 155.368 32.5622 155.365C32.3004 155.431 32.0425 155.489 31.7768 155.548C31.2298 155.666 30.6787 155.764 30.1239 155.847C28.8929 156.027 27.6503 156.097 26.4076 156.152C20.1124 156.422 13.7938 155.925 7.61189 154.706C6.0918 154.405 4.57953 154.06 3.07509 153.675C1.33227 153.229 -1.23897 157.3 0.769567 157.818C7.52201 159.546 14.4659 160.392 21.4333 160.392C26.7711 160.392 32.574 160.098 37.1342 156.967C39.5413 155.313 41.4053 152.927 42.0383 150.039C42.6674 147.178 41.6592 144.446 39.8734 142.232C39.1818 141.374 38.4081 140.61 37.5757 139.909C40.8895 138.619 43.9179 136.675 46.2742 133.897C48.2749 131.538 49.5371 128.583 49.5215 125.464C49.5058 122.376 47.9506 119.514 46.1569 117.1C42.5775 112.289 38.0252 108.217 32.8358 105.223C31.515 104.459 30.1512 103.781 28.764 103.146C28.3927 102.977 27.705 103.33 27.4276 103.51H27.4237ZM9.59308 134.579C8.37387 134.171 7.17027 133.846 6.15041 133.141C6.04881 133.07 5.95112 132.996 5.85343 132.925C6.00974 132.937 6.16213 132.953 6.31844 132.968C7.76426 133.105 9.2101 133.298 10.6403 133.544C13.5085 134.038 16.3377 134.748 19.0965 135.661C20.9096 136.26 22.6954 136.958 24.4383 137.734C22.3906 137.596 20.3469 137.318 18.3266 136.922C15.3647 136.346 12.4495 135.539 9.58917 134.583L9.59308 134.579Z" fill="#1A99EE"/>
<path d="M314.913 160.673C309.611 165.131 304.434 169.738 299.398 174.494C300.633 175.932 301.89 177.346 303.176 178.737C308.043 174.267 313.036 169.933 318.145 165.741C317.072 164.049 315.998 162.357 314.916 160.668L314.913 160.673Z" fill="#EC3237"/>
<path d="M275.957 255.235C274.6 255.138 273.28 255.415 272.045 255.689C270.772 255.97 269.55 256.38 268.424 256.947C266.52 257.901 264.839 259.28 263.726 261.124C261.86 260.241 259.889 259.78 258.048 259.694C255.105 259.561 252.436 260.452 250.253 261.918C248.007 263.426 246.166 265.411 244.594 267.635C243.093 269.764 241.82 272.097 240.949 274.68C238.543 273.722 236.059 273.484 233.849 273.883C228.131 274.911 223.977 279.233 221.83 284.43C221.273 285.782 220.803 287.247 220.489 288.778C221.371 289.427 222.249 290.088 223.115 290.76C223.13 290.678 223.143 290.596 223.158 290.517C223.225 290.189 223.299 289.865 223.381 289.541C223.421 289.381 223.468 289.22 223.507 289.06V289.04C223.542 288.942 223.569 288.845 223.6 288.747C223.796 288.122 224.017 287.509 224.263 286.915C224.51 286.32 224.784 285.742 225.082 285.184C225.231 284.906 225.388 284.629 225.549 284.359C225.631 284.226 225.713 284.09 225.795 283.957C225.713 284.082 225.779 283.98 225.795 283.957C225.858 283.863 225.921 283.769 225.983 283.679C226.693 282.651 227.5 281.706 228.402 280.858C228.817 280.467 229.252 280.099 229.706 279.756C229.769 279.709 229.831 279.662 229.895 279.615C230.008 279.537 230.122 279.459 230.235 279.384C230.486 279.22 230.741 279.064 231.004 278.912C231.976 278.357 233.026 277.911 234.15 277.622C234.292 277.587 234.429 277.552 234.57 277.521C234.57 277.521 234.613 277.513 234.648 277.505C234.695 277.497 234.789 277.477 234.805 277.477C235.115 277.423 235.424 277.38 235.741 277.352C236.333 277.298 236.941 277.286 237.556 277.321C237.834 277.337 238.116 277.364 238.398 277.399C238.528 277.415 238.657 277.438 238.787 277.458C238.77 277.458 239.08 277.517 239.139 277.533C239.456 277.603 239.778 277.693 240.095 277.79C239.676 279.826 239.484 281.964 239.637 284.195C239.747 285.828 240.025 287.513 240.491 289.173C241.028 291.08 241.894 293.1 243.884 294.003C245.362 294.671 246.937 294.331 247.988 293.624C248.975 292.96 249.728 292.018 250.155 290.838C251.053 288.365 250.821 285.106 249.336 282.234C248.027 279.705 246.052 277.642 243.74 276.145C243.943 275.621 244.163 275.106 244.398 274.602C244.668 274.027 244.959 273.464 245.264 272.918C245.401 272.671 245.542 272.429 245.687 272.191C245.766 272.061 245.844 271.933 245.923 271.804C245.97 271.729 246.012 271.659 246.06 271.585C246.068 271.573 246.118 271.491 246.146 271.452L246.193 271.382C246.24 271.312 246.287 271.241 246.334 271.17C246.416 271.045 246.502 270.925 246.589 270.803C246.757 270.561 246.934 270.323 247.11 270.084C247.474 269.596 247.855 269.119 248.25 268.658C249.014 267.767 249.834 266.931 250.735 266.185C251.582 265.481 252.444 264.907 253.568 264.375C254.101 264.125 254.649 263.91 255.222 263.735C255.869 263.535 256.135 263.473 256.77 263.39C257.969 263.234 259.239 263.258 260.524 263.473C260.571 263.485 260.787 263.524 260.826 263.532C260.986 263.566 261.143 263.605 261.304 263.644C261.622 263.727 261.939 263.821 262.252 263.926C262.354 263.961 262.456 263.997 262.558 264.036C262.041 266.372 262.327 269.068 263.922 271.577C264.866 273.062 266.265 274.215 267.837 274.41C269.259 274.586 270.384 273.66 270.842 272.476C271.41 271.006 271.203 269.131 270.349 267.415C269.498 265.708 268.245 264.27 266.763 263.051C266.732 263.023 266.696 263 266.665 262.973C266.834 262.769 267.006 262.578 267.19 262.391C267.578 261.996 267.997 261.64 268.444 261.311C268.503 261.269 268.565 261.23 268.624 261.191C268.722 261.124 268.82 261.061 268.918 261.003C269.169 260.847 269.424 260.702 269.687 260.565C270.69 260.034 271.775 259.627 272.908 259.33C273.558 259.159 273.778 259.115 274.42 259.018C274.985 258.932 275.557 258.862 276.14 258.834C276.372 258.823 276.611 258.826 276.85 258.846C276.956 258.854 277.061 258.865 277.167 258.878C277.226 258.885 277.43 258.92 277.458 258.92C277.599 258.951 277.739 258.995 277.877 259.034C277.716 258.072 277.563 257.111 277.43 256.154C277.387 255.919 277.347 255.685 277.305 255.45C276.846 255.345 276.392 255.274 275.949 255.243L275.957 255.235ZM246.342 281.948C246.455 282.108 246.573 282.261 246.679 282.421C246.852 282.671 247 282.929 247.161 283.183C247.185 283.222 247.208 283.265 247.228 283.304C247.306 283.461 247.381 283.617 247.447 283.776C247.498 283.894 247.549 284.015 247.596 284.136C247.592 284.124 247.619 284.199 247.647 284.265C247.733 284.547 247.815 284.828 247.878 285.109C247.909 285.25 247.933 285.395 247.964 285.535C247.964 285.578 247.972 285.605 247.968 285.602C248.003 285.883 248.023 286.161 248.027 286.438C248.027 286.54 248.027 286.637 248.027 286.739C248.015 286.793 248.023 286.883 248.015 286.938C247.992 287.224 247.949 287.501 247.894 287.77C247.874 287.872 247.843 287.974 247.823 288.079C247.811 288.118 247.799 288.154 247.788 288.193C247.701 288.443 247.6 288.685 247.482 288.915C247.427 289.021 247.368 289.126 247.31 289.228C247.302 289.24 247.302 289.243 247.294 289.256C247.286 289.263 247.283 289.271 247.27 289.287C247.118 289.486 246.961 289.682 246.785 289.857C246.702 289.939 246.616 290.017 246.526 290.092C246.491 290.123 246.448 290.15 246.412 290.181C246.189 290.303 245.981 290.439 245.743 290.541C245.637 290.584 245.531 290.623 245.421 290.659C245.358 290.678 245.292 290.698 245.225 290.713H245.197C244.903 290.756 244.602 290.764 244.292 290.729C244.257 290.721 244.112 290.69 244.069 290.678C243.982 290.651 243.9 290.619 243.814 290.588C243.811 290.588 243.786 290.576 243.76 290.564C243.713 290.537 243.634 290.49 243.615 290.478C243.571 290.451 243.532 290.42 243.489 290.389C243.477 290.373 243.466 290.361 243.446 290.338L243.438 290.326C243.438 290.326 243.446 290.338 243.45 290.345C243.45 290.338 243.442 290.334 243.438 290.326C243.34 290.213 243.368 290.217 243.422 290.299C243.399 290.264 243.379 290.228 243.356 290.193C243.332 290.119 243.125 289.752 243.156 289.709C243.156 289.709 243.265 290.061 243.203 289.838C243.183 289.767 243.16 289.697 243.136 289.627C243.077 289.431 243.019 289.232 242.968 289.037C242.772 288.329 242.615 287.622 242.494 286.915C242.494 286.895 242.486 286.871 242.482 286.852C242.482 286.84 242.482 286.832 242.478 286.817C242.458 286.649 242.431 286.481 242.411 286.313C242.368 285.953 242.333 285.594 242.31 285.238C242.262 284.57 242.246 283.914 242.262 283.261C242.262 283.183 242.274 282.964 242.274 282.944C242.282 282.824 242.29 282.698 242.298 282.577C242.321 282.253 242.352 281.933 242.388 281.616C242.466 280.956 242.572 280.303 242.702 279.666C242.748 279.443 242.799 279.22 242.854 278.997C243.332 279.279 243.799 279.584 244.249 279.924C244.469 280.088 244.684 280.26 244.892 280.44C244.923 280.471 245.096 280.623 245.135 280.662C245.276 280.795 245.413 280.928 245.547 281.069C245.782 281.311 246.009 281.561 246.225 281.819C246.264 281.866 246.303 281.913 246.342 281.96V281.948ZM267.621 267.529V267.537C267.817 267.818 268.001 268.091 268.181 268.381C268.209 268.443 268.245 268.506 268.272 268.568C268.287 268.603 268.335 268.709 268.374 268.795C268.366 268.795 268.464 269.08 268.483 269.158C268.495 269.205 268.503 269.252 268.514 269.299C268.514 269.307 268.514 269.311 268.514 269.319C268.514 269.35 268.526 269.428 268.534 269.502C268.531 269.514 268.526 269.537 268.519 269.564C268.507 269.616 268.503 269.674 268.495 269.729C268.483 269.799 268.46 269.87 268.452 269.94C268.452 269.959 268.448 269.971 268.448 269.979C268.405 270.069 268.343 270.162 268.318 270.21L268.311 270.221C268.291 270.252 268.268 270.291 268.256 270.304C268.181 270.389 268.107 270.479 268.024 270.553C267.982 270.593 267.919 270.627 267.895 270.639C267.907 270.635 267.931 270.624 267.97 270.604C267.853 270.655 267.747 270.73 267.621 270.772C267.582 270.788 267.539 270.8 267.496 270.811C267.378 270.788 267.245 270.827 267.123 270.819C267.01 270.811 266.79 270.741 267.013 270.815C266.869 270.764 266.724 270.722 266.575 270.671L266.543 270.659C266.512 270.639 266.484 270.624 266.453 270.604C266.375 270.553 266.301 270.495 266.226 270.44C266.203 270.421 266.097 270.331 266.03 270.264C265.987 270.218 265.948 270.17 265.901 270.123C265.893 270.115 265.889 270.112 265.881 270.104C265.803 269.987 265.717 269.878 265.642 269.756C265.623 269.729 265.607 269.698 265.587 269.666C265.544 269.549 265.442 269.397 265.399 269.295C265.341 269.166 265.29 269.033 265.238 268.901C265.223 268.834 265.18 268.729 265.168 268.682C265.125 268.529 265.086 268.377 265.055 268.225C265.047 268.197 265.031 268.108 265.015 268.033C265.007 267.939 264.98 267.721 264.976 267.666C264.968 267.537 264.964 267.412 264.964 267.287C264.964 267.287 264.96 267.295 264.957 267.295C264.957 267.295 264.96 267.279 264.964 267.256C264.964 267.243 264.964 267.236 264.964 267.224C264.964 267.123 264.964 267.111 264.972 267.134C264.972 267.126 264.972 267.115 264.972 267.111C265.003 266.794 265.05 266.482 265.113 266.177C265.137 266.056 265.164 265.934 265.195 265.817C265.207 265.762 265.223 265.708 265.238 265.653C265.266 265.575 265.293 265.5 265.321 265.422C265.466 265.52 265.61 265.622 265.752 265.728C265.893 265.833 266.034 265.942 266.171 266.052C266.214 266.087 266.336 266.188 266.375 266.22C266.638 266.454 266.892 266.7 267.136 266.958C267.257 267.087 267.374 267.22 267.492 267.353C267.539 267.407 267.582 267.462 267.629 267.513L267.621 267.529Z" fill="#EC3237"/>
<mask id="mask0_1_22614" style="mask-type:luminance" maskUnits="userSpaceOnUse" x="83" y="0" width="33" height="34">
<path d="M115.419 0.0219727H83.2207V33.1577H115.419V0.0219727Z" fill="white"/>
</mask>
<g mask="url(#mask0_1_22614)">
<path d="M115.416 15.7877L105.376 21.5955L104.475 33.1543L95.8482 25.4082L84.5734 28.1204L89.2807 17.5201L83.2173 7.63685L94.7477 8.83675L102.274 0.0185547L104.702 11.3573L115.416 15.7877Z" fill="#F5C747"/>
</g>
<mask id="mask1_1_22614" style="mask-type:luminance" maskUnits="userSpaceOnUse" x="47" y="54" width="214" height="214">
<path d="M260.81 160.65C260.81 101.832 213.128 54.1499 154.31 54.1499C95.4917 54.1499 47.8101 101.832 47.8101 160.65C47.8101 219.468 95.4917 267.15 154.31 267.15C213.128 267.15 260.81 219.468 260.81 160.65Z" fill="white"/>
</mask>
<g mask="url(#mask1_1_22614)">
<path d="M260.81 160.65C260.81 101.832 213.128 54.1499 154.31 54.1499C95.4917 54.1499 47.8101 101.832 47.8101 160.65C47.8101 219.468 95.4917 267.15 154.31 267.15C213.128 267.15 260.81 219.468 260.81 160.65Z" fill="#1A99EE"/>
</g>
<mask id="mask2_1_22614" style="mask-type:luminance" maskUnits="userSpaceOnUse" x="66" y="76" width="208" height="340">
<path d="M273.656 76.8682H66.3364V415.538H273.656V76.8682Z" fill="white"/>
</mask>
<g mask="url(#mask2_1_22614)">
<path d="M196.54 165.257C196.317 161.823 197.721 157.79 198.63 158.186C199.55 158.583 198.689 161.794 199.327 162.762C200.169 164.029 200.895 165.219 200.266 168.218L196.53 165.257H196.54Z" fill="white"/>
</g>
<mask id="mask3_1_22614" style="mask-type:luminance" maskUnits="userSpaceOnUse" x="66" y="77" width="208" height="339">
<path d="M273.607 77.0273H66.2871V415.697H273.607V77.0273Z" fill="white"/>
</mask>
<g mask="url(#mask3_1_22614)">
<path d="M200.052 391.261C200.052 391.261 189.214 255.18 159.941 189.031L132.729 190.395C132.729 190.395 135.052 286.204 155.46 391.261C155.46 391.261 180.998 397.317 200.042 391.261H200.052Z" fill="#1E2128"/>
</g>
<mask id="mask4_1_22614" style="mask-type:luminance" maskUnits="userSpaceOnUse" x="66" y="77" width="208" height="339">
<path d="M273.527 77.0312H66.2065V415.701H273.527V77.0312Z" fill="white"/>
</mask>
<g mask="url(#mask4_1_22614)">
<path d="M122.875 391.265C122.875 391.265 96.0988 395.589 80.8188 385.209C80.8188 385.209 88.9469 237.664 113.856 189.286H143.138C143.138 189.286 142.181 268.814 122.865 391.265H122.875Z" fill="#1E2128"/>
</g>
<mask id="mask5_1_22614" style="mask-type:luminance" maskUnits="userSpaceOnUse" x="66" y="76" width="208" height="340">
<path d="M273.574 76.8047H66.2539V415.475H273.574V76.8047Z" fill="white"/>
</mask>
<g mask="url(#mask5_1_22614)">
<path d="M114.562 119.011C115.277 116.438 116.642 113.149 116.642 113.149C116.168 115.616 116.158 118.344 116.207 119.814C122.564 122.726 135.841 126.528 156.472 121.488C156.211 119.369 156.095 117.357 156.095 117.357C156.463 118.702 156.985 120.056 157.498 121.227C158.234 121.043 158.969 120.85 159.724 120.637C159.105 118.015 158.844 113.468 158.844 113.468C159.559 116.206 160.991 118.992 161.591 120.105C162.849 119.727 164.127 119.321 165.433 118.876C165.433 118.876 161.321 112.607 158.631 96.2878C156.385 82.8702 149.505 76.5342 139.044 76.8047C117.532 77.3855 111.794 117.29 111.794 117.29C111.794 117.29 112.713 118.015 114.562 119.002V119.011Z" fill="#323743"/>
</g>
<mask id="mask6_1_22614" style="mask-type:luminance" maskUnits="userSpaceOnUse" x="66" y="76" width="208" height="340">
<path d="M273.55 76.8496H66.23V415.52H273.55V76.8496Z" fill="white"/>
</mask>
<g mask="url(#mask6_1_22614)">
<path d="M188.905 166.39C188.905 166.39 180.283 127.598 146.007 125.586C93.2485 122.5 77.0293 156.803 77.0293 156.803L188.905 166.39Z" fill="#EC3237"/>
</g>
<mask id="mask7_1_22614" style="mask-type:luminance" maskUnits="userSpaceOnUse" x="66" y="76" width="208" height="340">
<path d="M273.571 76.8018H66.251V415.472H273.571V76.8018Z" fill="white"/>
</mask>
<g mask="url(#mask7_1_22614)">
<path d="M134.299 86.6495C140.125 83.3218 150.353 83.1769 152.685 91.0608C154.844 98.3354 154.495 120.257 144.76 119.841C134.58 119.405 131.377 111.676 130.467 106.946C130.138 105.243 128.474 89.9773 134.299 86.6495Z" fill="white"/>
</g>
<mask id="mask8_1_22614" style="mask-type:luminance" maskUnits="userSpaceOnUse" x="66" y="76" width="208" height="340">
<path d="M273.55 76.8022H66.23V415.472H273.55V76.8022Z" fill="white"/>
</mask>
<g mask="url(#mask8_1_22614)">
<path d="M130.698 106.559C130.698 106.559 126.15 107.961 125.298 103.869C124.534 100.184 128.908 98.7424 130.321 100.358L130.698 106.559Z" fill="white"/>
</g>
<mask id="mask9_1_22614" style="mask-type:luminance" maskUnits="userSpaceOnUse" x="66" y="76" width="208" height="340">
<path d="M273.649 76.9009H66.3291V415.571H273.649V76.9009Z" fill="white"/>
</mask>
<g mask="url(#mask9_1_22614)">
<path d="M193.775 213.166C200.298 200.397 205.397 170.582 205.397 170.582C206.151 169.412 209.316 164.333 209.52 160.463C209.606 158.741 208.736 157.725 207.574 158.287C207.158 156.894 206.326 156.633 205.204 157.455C204.575 156.236 203.81 156.284 203.055 156.874C201.391 154.079 198.062 162.93 198.081 164.033C198.091 164.778 198.314 167.496 198.43 168.299C198.575 169.363 178.873 202.941 178.873 202.941L193.785 213.176L193.775 213.166Z" fill="white"/>
</g>
<mask id="mask10_1_22614" style="mask-type:luminance" maskUnits="userSpaceOnUse" x="66" y="77" width="208" height="339">
<path d="M273.509 77.0234H66.1895V415.693H273.509V77.0234Z" fill="white"/>
</mask>
<g mask="url(#mask10_1_22614)">
<path d="M86.1241 387.582L85.2529 387.523C85.3495 386.053 95.2689 239.427 120.438 191.793L121.213 192.2C96.1202 239.679 86.2207 386.111 86.1241 387.582Z" fill="#EC3237"/>
</g>
<mask id="mask11_1_22614" style="mask-type:luminance" maskUnits="userSpaceOnUse" x="66" y="76" width="208" height="340">
<path d="M273.557 76.8877H66.2368V415.558H273.557V76.8877Z" fill="white"/>
</mask>
<g mask="url(#mask11_1_22614)">
<path d="M107.519 165.509L98.2871 218.299C122.383 225.535 149.575 219.035 171.813 204.282L162.6 152.217L145.462 126.128C145.462 126.128 137.111 135.656 127.899 125.915L103.91 135.975L107.519 165.509Z" fill="#EC3237"/>
</g>
<mask id="mask12_1_22614" style="mask-type:luminance" maskUnits="userSpaceOnUse" x="66" y="76" width="208" height="340">
<path d="M273.625 76.8682H66.3047V415.538H273.625V76.8682Z" fill="white"/>
</mask>
<g mask="url(#mask12_1_22614)">
<path d="M195.309 176.934L190.441 164.87C190.441 164.87 178.267 140.125 168.242 133.73L161.827 177.031L195.299 176.934H195.309Z" fill="#EC3237"/>
</g>
<mask id="mask13_1_22614" style="mask-type:luminance" maskUnits="userSpaceOnUse" x="66" y="76" width="208" height="340">
<path d="M273.568 76.9751H66.2476V415.645H273.568V76.9751Z" fill="white"/>
</mask>
<g mask="url(#mask13_1_22614)">
<path d="M138.351 272.589L137.499 272.511C138.884 257.73 140.034 243.268 140.925 229.531L141.786 229.589C140.896 243.326 139.745 257.798 138.361 272.589H138.351Z" fill="#323743"/>
</g>
<mask id="mask14_1_22614" style="mask-type:luminance" maskUnits="userSpaceOnUse" x="66" y="77" width="208" height="339">
<path d="M273.581 77.0679H66.2612V415.738H273.581V77.0679Z" fill="white"/>
</mask>
<g mask="url(#mask14_1_22614)">
<path d="M161.938 391.602C161.754 390.731 143.697 304.112 138.559 260.464L139.429 260.357C144.558 303.967 162.616 390.547 162.799 391.418L161.938 391.602Z" fill="#EC3237"/>
</g>
<mask id="mask15_1_22614" style="mask-type:luminance" maskUnits="userSpaceOnUse" x="66" y="76" width="208" height="340">
<path d="M273.618 76.8931H66.2983V415.563H273.618V76.8931Z" fill="white"/>
</mask>
<g mask="url(#mask15_1_22614)">
<path d="M163.087 152.153L162.249 152.302L171.441 204.364L172.279 204.216L163.087 152.153Z" fill="#1E2128"/>
</g>
<mask id="mask16_1_22614" style="mask-type:luminance" maskUnits="userSpaceOnUse" x="66" y="76" width="208" height="340">
<path d="M273.567 76.7886H66.2466V415.459H273.567V76.7886Z" fill="white"/>
</mask>
<g mask="url(#mask16_1_22614)">
<path d="M126.999 99.5322C126.999 99.5322 128.624 98.5936 130.24 100.315C130.24 100.315 130.666 96.8719 131.828 94.7049L132.554 98.5453C133.734 98.7292 137.489 99.3483 141.601 99.4257C142.763 99.4449 146.024 99.4257 146.024 99.4257L146.769 93.0116L148.162 99.3001C149.121 99.2227 149.866 99.1254 150.63 99.0189L151.172 95.2467L152.227 98.7967C153.252 98.6227 153.969 98.4679 154.307 98.3906C154.52 95.6911 154.608 88.4264 149.798 84.2182C144.282 79.391 132.612 82.0414 129.902 87.8265C127.202 93.6115 126.999 99.5415 126.999 99.5415V99.5322Z" fill="#323743"/>
</g>
<mask id="mask17_1_22614" style="mask-type:luminance" maskUnits="userSpaceOnUse" x="66" y="76" width="208" height="340">
<path d="M273.558 76.8223H66.2383V415.492H273.558V76.8223Z" fill="white"/>
</mask>
<g mask="url(#mask17_1_22614)">
<path d="M137.897 130.289C142.725 130.289 145.599 126.071 145.599 126.071L144.39 112.103L131.093 104.209L127.736 125.858C127.736 125.858 131.896 130.289 137.887 130.289H137.897Z" fill="white"/>
</g>
<mask id="mask18_1_22614" style="mask-type:luminance" maskUnits="userSpaceOnUse" x="66" y="76" width="208" height="340">
<path d="M273.569 76.8242H66.2485V415.494H273.569V76.8242Z" fill="white"/>
</mask>
<g mask="url(#mask18_1_22614)">
<path d="M144.313 120.647L144.351 119.796C138.304 119.534 134.433 114.91 132.246 111.079L131.51 111.495C133.804 115.51 137.878 120.366 144.313 120.637V120.647Z" fill="#323743"/>
</g>
<mask id="mask19_1_22614" style="mask-type:luminance" maskUnits="userSpaceOnUse" x="66" y="76" width="208" height="340">
<path d="M273.624 76.9399H66.3037V415.61H273.624V76.9399Z" fill="white"/>
</mask>
<g mask="url(#mask19_1_22614)">
<path d="M109.386 277.594L246.402 255.963C249.218 255.518 251.163 252.848 250.718 250.024L236.793 161.866C236.348 159.051 233.677 157.107 230.851 157.552L93.8444 179.182C91.0285 179.627 89.0831 182.297 89.5283 185.122L103.454 273.279C103.899 276.094 106.57 278.039 109.395 277.594H109.386Z" fill="#937BF2"/>
</g>
<mask id="mask20_1_22614" style="mask-type:luminance" maskUnits="userSpaceOnUse" x="66" y="76" width="208" height="340">
<path d="M273.537 76.9639H66.2168V415.634H273.537V76.9639Z" fill="white"/>
</mask>
<g mask="url(#mask20_1_22614)">
<path d="M135.191 234.321L110.52 238.213C109.754 238.334 109.232 239.053 109.352 239.818L110.103 244.567C110.223 245.332 110.942 245.855 111.707 245.734L136.378 241.841C137.144 241.72 137.666 241.002 137.546 240.237L136.795 235.488C136.675 234.722 135.956 234.2 135.191 234.321Z" fill="#EC3237"/>
</g>
<mask id="mask21_1_22614" style="mask-type:luminance" maskUnits="userSpaceOnUse" x="66" y="76" width="208" height="340">
<path d="M273.601 76.9614H66.2808V415.631H273.601V76.9614Z" fill="white"/>
</mask>
<g mask="url(#mask21_1_22614)">
<path d="M167.855 229.174L143.184 233.067C142.418 233.188 141.896 233.906 142.016 234.671L142.767 239.42C142.888 240.185 143.606 240.708 144.371 240.587L169.043 236.694C169.808 236.573 170.33 235.855 170.21 235.09L169.459 230.341C169.339 229.575 168.62 229.053 167.855 229.174Z" fill="#EC3237"/>
</g>
<mask id="mask22_1_22614" style="mask-type:luminance" maskUnits="userSpaceOnUse" x="66" y="76" width="208" height="340">
<path d="M273.651 76.959H66.3306V415.629H273.651V76.959Z" fill="white"/>
</mask>
<g mask="url(#mask22_1_22614)">
<path d="M200.514 224.026L175.844 227.919C175.078 228.039 174.555 228.758 174.677 229.523L175.426 234.272C175.547 235.037 176.266 235.56 177.031 235.439L201.702 231.546C202.468 231.425 202.99 230.707 202.869 229.941L202.12 225.193C201.998 224.428 201.28 223.905 200.514 224.026Z" fill="#EC3237"/>
</g>
<mask id="mask23_1_22614" style="mask-type:luminance" maskUnits="userSpaceOnUse" x="66" y="76" width="208" height="340">
<path d="M273.697 76.9497H66.3774V415.62H273.697V76.9497Z" fill="white"/>
</mask>
<g mask="url(#mask23_1_22614)">
<path d="M233.161 218.872L208.491 222.765C207.726 222.886 207.202 223.604 207.324 224.369L208.073 229.118C208.194 229.884 208.913 230.406 209.678 230.285L234.349 226.392C235.114 226.271 235.637 225.553 235.516 224.788L234.767 220.039C234.645 219.273 233.927 218.752 233.161 218.872Z" fill="#EC3237"/>
</g>
<mask id="mask24_1_22614" style="mask-type:luminance" maskUnits="userSpaceOnUse" x="66" y="76" width="208" height="340">
<path d="M273.695 76.9653H66.3745V415.635H273.695V76.9653Z" fill="white"/>
</mask>
<g mask="url(#mask24_1_22614)">
<path d="M235.183 233.642L202.731 238.763C201.796 238.91 201.159 239.787 201.306 240.721L201.96 244.858C202.107 245.793 202.984 246.43 203.918 246.283L236.37 241.162C237.304 241.015 237.942 240.138 237.795 239.204L237.142 235.067C236.994 234.132 236.117 233.495 235.183 233.642Z" fill="#EC3237"/>
</g>
<mask id="mask25_1_22614" style="mask-type:luminance" maskUnits="userSpaceOnUse" x="66" y="76" width="208" height="340">
<path d="M273.541 76.915H66.2212V415.585H273.541V76.915Z" fill="white"/>
</mask>
<g mask="url(#mask25_1_22614)">
<path d="M110.493 206.283L108.935 196.415C108.597 194.258 110.077 192.227 112.235 191.888L131.415 188.86C133.573 188.522 135.605 190.002 135.944 192.159L137.502 202.027C137.84 204.183 136.36 206.215 134.202 206.554L115.022 209.582C112.864 209.92 110.832 208.44 110.493 206.283ZM112.4 192.933C110.823 193.185 109.738 194.665 109.99 196.251L111.548 206.118C111.8 207.695 113.28 208.779 114.868 208.527L134.047 205.499C135.624 205.248 136.709 203.768 136.456 202.181L134.899 192.314C134.647 190.737 133.166 189.654 131.579 189.905L112.4 192.933Z" fill="#EC3237"/>
</g>
<mask id="mask26_1_22614" style="mask-type:luminance" maskUnits="userSpaceOnUse" x="66" y="76" width="208" height="340">
<path d="M273.72 76.8955H66.3999V415.566H273.72V76.8955Z" fill="white"/>
</mask>
<g mask="url(#mask26_1_22614)">
<path d="M238.398 168.249L237.442 168.4L240.777 189.517L241.732 189.366L238.398 168.249Z" fill="#197894"/>
</g>
<mask id="mask27_1_22614" style="mask-type:luminance" maskUnits="userSpaceOnUse" x="66" y="76" width="208" height="340">
<path d="M273.679 76.9658H66.3589V415.636H273.679V76.9658Z" fill="white"/>
</mask>
<g mask="url(#mask27_1_22614)">
<path d="M168.858 268.73L168.703 267.772L246.39 255.515C247.628 255.321 248.713 254.654 249.457 253.629C250.203 252.613 250.502 251.365 250.309 250.127L243.554 207.388L244.513 207.233L251.267 249.972C251.499 251.462 251.141 252.961 250.251 254.189C249.361 255.418 248.044 256.221 246.554 256.463L168.867 268.72L168.858 268.73Z" fill="#197894"/>
</g>
<mask id="mask28_1_22614" style="mask-type:luminance" maskUnits="userSpaceOnUse" x="66" y="76" width="208" height="340">
<path d="M273.681 76.8711H66.3608V415.541H273.681V76.8711Z" fill="white"/>
</mask>
<g mask="url(#mask28_1_22614)">
<path d="M208.487 158.17C209.087 158.353 209.387 159.021 209.125 159.592C208.642 160.617 207.858 161.681 207.296 161.72C206.319 161.788 206.813 160.104 207.19 158.856C207.355 158.305 207.935 157.996 208.487 158.17Z" fill="white"/>
</g>
<mask id="mask29_1_22614" style="mask-type:luminance" maskUnits="userSpaceOnUse" x="66" y="76" width="208" height="340">
<path d="M273.671 76.8701H66.3511V415.54H273.671V76.8701Z" fill="white"/>
</mask>
<g mask="url(#mask29_1_22614)">
<path d="M206.793 158.15C207.2 158.42 207.364 158.933 207.19 159.388C206.755 160.53 205.836 162.164 204.906 162.019C204.316 161.923 204.703 160.152 205.09 158.701C205.274 158.004 206.193 157.734 206.793 158.15Z" fill="white"/>
</g>
<mask id="mask30_1_22614" style="mask-type:luminance" maskUnits="userSpaceOnUse" x="66" y="76" width="208" height="340">
<path d="M273.663 76.8701H66.3428V415.54H273.663V76.8701Z" fill="white"/>
</mask>
<g mask="url(#mask30_1_22614)">
<path d="M204.346 157.55C204.908 157.666 205.266 158.208 205.159 158.769C204.918 159.968 204.308 161.555 203.06 162.009C201.986 162.396 202.595 159.852 202.982 158.295C203.117 157.744 203.66 157.405 204.211 157.521L204.356 157.55H204.346Z" fill="white"/>
</g>
<mask id="mask31_1_22614" style="mask-type:luminance" maskUnits="userSpaceOnUse" x="66" y="76" width="208" height="340">
<path d="M273.665 76.8657H66.3447V415.536H273.665V76.8657Z" fill="white"/>
</mask>
<g mask="url(#mask31_1_22614)">
<path d="M202.355 156.2C203.371 156.374 203.516 157.39 203.255 158.058C202.771 159.277 201.939 160.67 201.174 160.854C200.352 161.057 200.807 159.006 201.078 157.449C201.194 156.742 201.735 156.085 202.364 156.2H202.355Z" fill="white"/>
</g>
<mask id="mask32_1_22614" style="mask-type:luminance" maskUnits="userSpaceOnUse" x="66" y="76" width="208" height="340">
<path d="M273.499 76.8901H66.1792V415.56H273.499V76.8901Z" fill="white"/>
</mask>
<g mask="url(#mask32_1_22614)">
<path d="M97.8132 211.482C97.8132 211.482 81.7786 188.013 106.6 171.278L120.816 131.315V131.044C104.171 130.957 86.2786 141.144 76.592 155.413C60.3925 179.268 62.0181 207.806 89.1427 222.51L97.8132 211.472V211.482Z" fill="#EC3237"/>
</g>
<mask id="mask33_1_22614" style="mask-type:luminance" maskUnits="userSpaceOnUse" x="66" y="76" width="208" height="340">
<path d="M273.515 76.8838H66.1948V415.554H273.515V76.8838Z" fill="white"/>
</mask>
<g mask="url(#mask33_1_22614)">
<path d="M105.968 176.282L105.106 176.108L107.525 163.812L108.387 163.986L105.968 176.282Z" fill="#1E2128"/>
</g>
<mask id="mask34_1_22614" style="mask-type:luminance" maskUnits="userSpaceOnUse" x="66" y="76" width="208" height="340">
<path d="M273.476 76.8984H66.1558V415.568H273.476V76.8984Z" fill="white"/>
</mask>
<g mask="url(#mask34_1_22614)">
<path d="M95.0416 222.915C83.3521 216.578 75.7267 207.272 72.9883 196.012C69.8623 183.165 73.1814 168.664 82.3361 155.179L83.0617 155.672C74.0426 168.954 70.7719 183.204 73.8395 195.799C76.5198 206.808 84.0004 215.921 95.4576 222.141L95.0416 222.915Z" fill="#1E2128"/>
</g>
<mask id="mask35_1_22614" style="mask-type:luminance" maskUnits="userSpaceOnUse" x="66" y="76" width="208" height="340">
<path d="M273.504 76.9473H66.1841V415.617H273.504V76.9473Z" fill="white"/>
</mask>
<g mask="url(#mask35_1_22614)">
<path d="M96.2986 213.474C97.1116 214.121 99.647 216.308 100.673 216.482C101.622 216.647 106.885 216.869 106.731 217.971C106.576 219.132 102.985 218.233 103.024 219.171C103.044 219.751 110.05 221.638 109.343 222.867C108.879 223.669 104.795 221.947 104.718 222.46C104.64 222.924 110.117 223.999 109.488 225.227C108.831 226.514 103.566 223.273 103.295 223.882C103.16 224.183 109.556 226.484 109.024 227.471C108.308 228.787 103.392 225.537 103.015 226.117C102.831 226.398 104.766 227.239 105.859 227.887C106.469 228.245 106.276 228.787 105.792 228.768C100.847 228.545 94.6443 222.537 93.8605 222.257C92.6798 221.841 91.5374 221.397 90.4248 220.941L96.2894 213.493L96.2986 213.474Z" fill="white"/>
</g>
<mask id="mask36_1_22614" style="mask-type:luminance" maskUnits="userSpaceOnUse" x="66" y="76" width="208" height="340">
<path d="M273.515 76.8857H66.1948V415.556H273.515V76.8857Z" fill="white"/>
</mask>
<g mask="url(#mask36_1_22614)">
<path d="M96.474 182.233L95.7192 181.788C98.0708 177.745 101.651 174.088 106.373 170.905L106.867 171.631C102.261 174.736 98.7673 178.296 96.4839 182.223L96.474 182.233Z" fill="#1E2128"/>
</g>
<mask id="mask37_1_22614" style="mask-type:luminance" maskUnits="userSpaceOnUse" x="66" y="76" width="208" height="340">
<path d="M273.667 76.8638H66.3467V415.534H273.667V76.8638Z" fill="white"/>
</mask>
<g mask="url(#mask37_1_22614)">
<path d="M206.298 126.433C190.176 123.222 174.509 133.679 171.297 149.796C168.084 165.912 178.544 181.574 194.666 184.786C210.788 187.997 226.455 177.54 229.668 161.423C232.881 145.307 222.42 129.645 206.298 126.433ZM223.978 160.292C222.73 166.56 219.11 171.977 213.779 175.528C208.456 179.078 202.079 180.355 195.799 179.097C182.851 176.514 174.403 163.881 176.997 150.927C178.245 144.659 181.864 139.241 187.186 135.691C192.315 132.266 198.45 130.961 204.508 131.996C204.731 132.034 204.944 132.073 205.166 132.122C217.91 134.656 226.271 146.922 224.094 159.643C224.055 159.856 224.017 160.069 223.978 160.292Z" fill="#197894"/>
</g>
<mask id="mask38_1_22614" style="mask-type:luminance" maskUnits="userSpaceOnUse" x="66" y="76" width="208" height="340">
<path d="M273.664 76.8638H66.3442V415.534H273.664V76.8638Z" fill="white"/>
</mask>
<g mask="url(#mask38_1_22614)">
<path d="M224.092 159.644C224.053 159.857 224.015 160.07 223.976 160.292C222.728 166.56 219.109 171.978 213.777 175.528C208.454 179.078 202.077 180.356 195.797 179.098C182.849 176.515 174.401 163.881 176.984 150.928C178.233 144.659 181.852 139.242 187.174 135.692C192.303 132.267 198.439 130.961 204.496 131.996C204.718 132.034 204.931 132.074 205.154 132.122C217.899 134.657 226.26 146.922 224.082 159.644H224.092Z" fill="#23A5CD"/>
</g>
<mask id="mask39_1_22614" style="mask-type:luminance" maskUnits="userSpaceOnUse" x="66" y="76" width="208" height="340">
<path d="M273.694 76.8545H66.374V415.525H273.694V76.8545Z" fill="white"/>
</mask>
<g mask="url(#mask39_1_22614)">
<path d="M224.17 153.568C224.151 153.365 224.131 153.172 224.112 152.969C223.347 146.178 219.699 140.073 214.087 136.176L214.455 135.643C220.212 139.648 223.967 145.917 224.751 152.863C224.78 153.114 224.799 153.317 224.819 153.52L224.17 153.578V153.568Z" fill="#197894"/>
</g>
<mask id="mask40_1_22614" style="mask-type:luminance" maskUnits="userSpaceOnUse" x="66" y="76" width="208" height="340">
<path d="M273.677 76.8389H66.3574V415.509H273.677V76.8389Z" fill="white"/>
</mask>
<g mask="url(#mask40_1_22614)">
<path d="M214.07 136.15C209.561 133.015 204.074 131.545 198.606 132.009L198.548 131.361C204.16 130.877 209.812 132.387 214.438 135.608L214.07 136.14V136.15Z" fill="#197894"/>
</g>
<mask id="mask41_1_22614" style="mask-type:luminance" maskUnits="userSpaceOnUse" x="66" y="76" width="208" height="340">
<path d="M273.699 76.8794H66.3789V415.549H273.699V76.8794Z" fill="white"/>
</mask>
<g mask="url(#mask41_1_22614)">
<path d="M219.181 171.238L218.688 170.823C220.711 168.424 222.22 165.705 223.159 162.754L223.778 162.948C222.81 165.986 221.272 168.772 219.181 171.238Z" fill="#197894"/>
</g>
<mask id="mask42_1_22614" style="mask-type:luminance" maskUnits="userSpaceOnUse" x="66" y="76" width="208" height="340">
<path d="M273.696 76.8389H66.376V415.509H273.696V76.8389Z" fill="white"/>
</mask>
<g mask="url(#mask42_1_22614)">
<path d="M223.339 137.04C221.414 134.67 219.139 132.619 216.595 130.955L216.972 130.375C219.585 132.078 221.907 134.176 223.881 136.605L223.339 137.04Z" fill="#197894"/>
</g>
<mask id="mask43_1_22614" style="mask-type:luminance" maskUnits="userSpaceOnUse" x="66" y="76" width="208" height="340">
<path d="M273.7 76.8745H66.3799V415.545H273.7V76.8745Z" fill="white"/>
</mask>
<g mask="url(#mask43_1_22614)">
<path d="M212.864 183.075L212.573 182.436C221.234 178.537 227.514 170.663 229.363 161.357C230.514 155.581 229.924 149.661 227.65 144.253L228.288 143.983C230.611 149.526 231.221 155.572 230.04 161.492C228.144 171.011 221.718 179.079 212.854 183.065L212.864 183.075Z" fill="#197894"/>
</g>
<mask id="mask44_1_22614" style="mask-type:luminance" maskUnits="userSpaceOnUse" x="66" y="76" width="208" height="340">
<path d="M273.645 76.8394H66.3252V415.509H273.645V76.8394Z" fill="white"/>
</mask>
<g mask="url(#mask44_1_22614)">
<path d="M181.514 139.711C184.233 141.094 186.101 143.204 187.378 145.864C188.655 143.213 190.533 141.085 193.252 139.701C190.533 138.318 188.655 136.21 187.378 133.549C186.101 136.2 184.233 138.328 181.514 139.711Z" fill="#7051EE"/>
</g>
<mask id="mask45_1_22614" style="mask-type:luminance" maskUnits="userSpaceOnUse" x="66" y="76" width="208" height="340">
<path d="M273.678 76.8892H66.3584V415.559H273.678V76.8892Z" fill="white"/>
</mask>
<g mask="url(#mask45_1_22614)">
<path d="M205.362 177.615C206.94 178.418 208.023 179.646 208.769 181.184C209.514 179.646 210.598 178.408 212.175 177.605C210.598 176.802 209.504 175.574 208.769 174.036C208.023 175.574 206.94 176.812 205.362 177.615Z" fill="#7051EE"/>
</g>
<mask id="mask46_1_22614" style="mask-type:luminance" maskUnits="userSpaceOnUse" x="66" y="76" width="208" height="340">
<path d="M273.665 76.8599H66.3452V415.53H273.665V76.8599Z" fill="white"/>
</mask>
<g mask="url(#mask46_1_22614)">
<path d="M184.915 153.214L196.299 164.19L215.445 145.73" stroke="white" stroke-width="7.1" stroke-linecap="round"/>
</g>
<path d="M13.5303 227.839C18.7935 230.471 22.4085 234.483 24.8809 239.545C27.3533 234.502 30.987 230.452 36.2503 227.821C30.987 225.189 27.3533 221.176 24.8809 216.115C22.4085 221.158 18.7935 225.207 13.5303 227.839Z" fill="#7051EE"/>
<path d="M49.7852 251.287C52.251 252.483 53.9453 254.313 55.1102 256.605C56.275 254.313 57.9693 252.469 60.4352 251.272C57.9693 250.076 56.2599 248.246 55.1102 245.955C53.9453 248.246 52.251 250.09 49.7852 251.287Z" fill="#7051EE"/>
<path d="M251.86 56.3346C248.572 56.658 245.763 58.423 243.191 60.3734C241.992 61.28 240.832 62.2363 239.632 63.1467C239.571 63.1952 239.54 63.2195 239.525 63.2316C239.498 63.2479 239.479 63.2602 239.467 63.2722C239.321 63.3776 239.175 63.483 239.025 63.5846C238.693 63.816 238.358 64.0395 238.015 64.2556C237.845 64.3616 237.671 64.4599 237.497 64.5582C237.474 64.5706 237.431 64.5912 237.397 64.6038C237.334 64.6288 237.276 64.6499 237.214 64.675C237.206 64.6752 237.199 64.6793 237.191 64.6834C237.195 64.6833 237.199 64.6832 237.203 64.6909C237.203 64.6909 237.187 64.6913 237.172 64.6917C237.109 64.7128 237.09 64.7094 237.097 64.7014C237.07 64.7021 237.047 64.7106 237.042 64.7145C237.008 64.7116 236.976 64.7046 236.94 64.6976C236.968 64.6969 236.951 64.6778 236.924 64.6629C236.96 64.6893 236.965 64.7283 236.868 64.6487C236.868 64.6487 236.861 64.6489 236.857 64.649C236.857 64.649 236.865 64.6488 236.868 64.6487C236.808 64.5956 236.748 64.5424 236.688 64.4931L236.668 64.478C236.623 64.4166 236.579 64.3591 236.538 64.2937C236.448 64.1553 236.37 64.0088 236.295 63.8582C236.258 63.781 236.224 63.7037 236.192 63.6303C236.179 63.6033 236.17 63.5839 236.163 63.5646C236.158 63.5452 236.149 63.522 236.141 63.4909C235.918 62.7305 235.71 61.9736 235.568 61.1915C235.426 60.4095 235.331 59.6185 235.272 58.8225C235.206 57.9526 235.196 57.4095 235.203 56.6314C235.229 53.3707 235.655 50.1309 235.798 46.8788C235.965 43.1415 235.727 39.4184 234.199 35.9555C233.958 35.4066 233.115 35.3737 232.643 35.4836C232.023 35.6324 231.337 36.084 231.115 36.7113C229.757 40.4676 228.403 44.2239 227.046 47.9802C226.914 48.3471 226.786 48.714 226.639 49.0735C226.573 49.2316 226.506 49.3896 226.431 49.544C226.394 49.6192 226.353 49.6946 226.316 49.7737C226.492 49.4369 226.296 49.7898 226.255 49.8418C226.247 49.8498 226.233 49.8736 226.213 49.8976C226.241 49.9164 226.242 49.9515 226.153 49.9812L226.149 49.9813C226.149 49.9813 226.172 49.9807 226.184 49.9803C226.172 49.9885 226.165 49.9926 226.153 50.0007L226.157 50.0006L226.188 49.9803C226.255 49.9669 226.286 49.9699 226.161 50.0005L226.134 50.0012V50.009V50.0168L226.13 50.0169L226.111 50.0292C226.076 50.0496 226.053 50.0658 226.049 50.0621C226.037 50.0506 226.049 50.0386 226.06 50.0266C226.068 50.0264 226.083 50.026 226.107 50.0175C226.083 50.0182 226.067 50.0185 226.064 50.0226C226.075 50.0144 226.083 50.0103 226.098 50.0021L226.079 49.9948C226.016 49.9965 226.024 49.9884 226.059 49.9875C226.031 49.9765 226.008 49.9693 226.011 49.9692C225.944 49.9475 225.833 49.8878 225.785 49.8694C225.546 49.7076 225.334 49.5254 225.121 49.3276C225.109 49.3162 225.088 49.2933 225.068 49.2742C225.036 49.236 225.004 49.1978 224.975 49.1594C224.878 49.0329 224.784 48.9063 224.695 48.7718C224.491 48.4643 224.306 48.1447 224.144 47.8127C224.07 47.6661 224.004 47.5154 223.941 47.3606C223.912 47.291 223.882 47.2174 223.853 47.144L223.844 47.1207C223.713 46.7332 223.608 46.3411 223.508 45.945C223.261 44.9976 223.024 44.046 222.792 43.0943C222.331 41.1908 221.902 39.2787 221.503 37.3579C220.711 33.5476 220.044 29.7145 219.502 25.8625C218.887 21.4964 218.433 17.1066 218.139 12.7088C218.081 11.8425 216.863 11.7176 216.242 11.9564C215.423 12.2708 214.774 12.952 214.833 13.8612C215.387 22.1417 216.509 30.3841 218.197 38.5104C218.613 40.5127 219.064 42.5103 219.547 44.4992C219.981 46.2783 220.328 48.1496 221.173 49.7891C221.825 51.0583 222.883 52.3875 224.335 52.7487C226.56 53.305 228.515 51.8709 229.488 49.9577C229.947 49.0585 230.235 48.066 230.576 47.1191C230.974 46.0143 231.373 44.9095 231.772 43.8047C231.959 43.2917 232.141 42.7789 232.328 42.2659C232.431 43.0685 232.487 43.8723 232.515 44.6807C232.517 44.7666 232.52 44.8487 232.522 44.9346L232.525 45.044C232.522 45.2395 232.523 45.431 232.525 45.6264C232.52 46.0643 232.512 46.5023 232.495 46.9405C232.373 50.2702 231.926 53.581 231.886 56.9124C231.867 58.6055 231.931 60.312 232.205 61.9858C232.466 63.5739 232.816 65.4412 233.933 66.6633C235.487 68.3666 237.97 67.3956 239.594 66.3531C240.986 65.4572 242.289 64.4269 243.583 63.4005C244.217 62.8995 244.842 62.3674 245.504 61.9007C245.447 61.9453 245.42 61.9655 245.574 61.8521C245.666 61.7871 245.755 61.7223 245.847 61.6574C246.012 61.5398 246.174 61.4262 246.343 61.3123C246.691 61.0766 247.046 60.8486 247.404 60.6322C247.759 60.4198 248.123 60.2188 248.494 60.0334C248.549 60.0085 248.603 59.9798 248.657 59.951C248.703 59.9341 248.75 59.9173 248.769 59.9051C248.948 59.8301 249.13 59.7551 249.308 59.6879C249.491 59.6207 249.674 59.5573 249.86 59.4978C249.942 59.4722 250.023 59.4466 250.109 59.4249C250.191 59.3993 250.277 59.3776 250.358 59.356C250.3 59.3692 250.238 59.3825 250.179 59.3957C250.523 59.2188 251.1 59.2235 251.479 59.1863C252.277 59.1071 253.266 58.3936 253.326 57.5399C253.389 56.6587 252.658 56.2477 251.856 56.3231L251.86 56.3346Z" fill="#1A99EE"/>
<path d="M238.622 121.556C238.787 121.265 238.958 120.98 239.146 120.704C239.198 120.63 239.533 120.207 239.375 120.386C239.438 120.311 239.512 120.225 239.537 120.195C239.664 120.046 239.794 119.905 239.929 119.764C240.006 119.686 240.45 119.278 240.17 119.517C239.89 119.756 240.346 119.364 240.434 119.291C240.564 119.18 240.694 119.076 240.83 118.971C240.952 118.875 241.081 118.784 241.206 118.69C241.281 118.645 241.348 118.59 241.414 118.549C241.73 118.346 242.056 118.156 242.383 117.977C242.556 117.883 242.74 117.757 242.926 117.696C242.494 117.841 242.924 117.698 243.105 117.617C243.808 117.311 244.525 117.059 245.26 116.837C245.338 116.817 245.556 116.755 245.629 116.736C245.803 116.694 245.977 116.653 246.154 116.613C246.564 116.525 246.98 116.453 247.394 116.389C247.781 116.334 248.168 116.288 248.557 116.255C248.678 116.245 248.794 116.236 248.915 116.226C248.915 116.226 248.987 116.22 249.04 116.219C249.093 116.217 249.162 116.214 249.162 116.214C249.281 116.214 249.4 116.207 249.52 116.206C253.237 116.17 256.852 117.35 260.243 118.794C263.978 120.384 267.529 122.359 271.212 124.059C274.093 125.388 277.166 126.548 280.386 126.479C283.87 126.404 287.387 124.885 289.115 121.707C290.029 120.027 290.257 118.221 290.41 116.346C290.475 115.55 290.548 114.756 290.719 113.973C290.732 113.939 290.786 113.718 290.805 113.666C290.869 113.47 290.964 113.284 291.032 113.09C291.06 113.038 291.093 112.988 291.124 112.933C291.129 112.927 291.159 112.88 291.191 112.831C291.219 112.798 291.249 112.762 291.277 112.73C291.282 112.723 291.287 112.718 291.292 112.711C291.402 112.636 291.442 112.608 291.447 112.602C291.505 112.564 291.554 112.53 291.581 112.511C291.733 112.446 291.904 112.402 292.056 112.345C292.093 112.331 292.115 112.324 292.134 112.314C292.153 112.309 292.169 112.309 292.199 112.303C292.399 112.263 292.592 112.222 292.793 112.192C292.962 112.167 293.133 112.148 293.302 112.138C293.437 112.135 293.577 112.135 293.713 112.138C295.533 112.192 297.203 112.945 298.769 113.825C300.561 114.833 302.254 116.011 304.034 117.046C305.84 118.098 307.691 119.071 309.576 119.965C311.309 120.787 313.074 121.537 314.869 122.221C316.51 121.226 318.182 120.288 319.88 119.397C318.187 118.8 316.513 118.142 314.866 117.424C310.925 115.708 307.233 113.595 303.592 111.313C301.748 110.155 299.864 109.129 297.721 108.642C295.942 108.238 294.015 108.399 292.303 109.022C290.225 109.78 288.406 111.285 287.382 113.252C286.511 114.931 286.378 116.782 286.22 118.632C286.186 119.029 286.148 119.432 286.091 119.825C286.062 120.036 286.026 120.247 285.985 120.452C285.967 120.54 285.947 120.631 285.929 120.718C285.923 120.749 285.915 120.778 285.911 120.8C285.904 120.809 285.9 120.832 285.884 120.874C285.817 121.074 285.745 121.268 285.666 121.463C285.645 121.512 285.634 121.544 285.63 121.566C285.62 121.578 285.612 121.587 285.603 121.61C285.541 121.706 285.475 121.804 285.411 121.903C285.358 121.96 285.282 122.055 285.246 122.097C285.236 122.109 285.22 122.115 285.207 122.124C285.101 122.183 284.994 122.266 284.901 122.321L284.883 122.331C284.883 122.331 284.88 122.334 284.869 122.335C284.713 122.392 284.56 122.451 284.403 122.508C284.387 122.515 284.357 122.526 284.331 122.539C284.32 122.54 284.312 122.543 284.295 122.545C283.956 122.611 283.621 122.685 283.277 122.72C283.213 122.728 283.012 122.747 282.919 122.754C282.83 122.756 282.572 122.763 282.528 122.766C282.162 122.768 281.796 122.75 281.431 122.721C280.681 122.658 279.941 122.537 279.208 122.371C279.168 122.363 278.964 122.313 278.925 122.304C278.76 122.262 278.596 122.214 278.433 122.169C278.052 122.055 277.675 121.929 277.3 121.796C276.481 121.5 275.685 121.142 274.889 120.783C271.056 119.049 267.381 116.983 263.51 115.33C259.926 113.798 256.007 112.498 252.072 112.498C248.405 112.5 244.764 113.401 241.558 115.184C239.668 116.234 237.894 117.65 236.502 119.355C236.587 119.437 236.669 119.522 236.754 119.604C237.01 119.852 237.193 120.122 237.313 120.398C237.714 120.846 238.102 121.304 238.495 121.755C238.535 121.672 238.585 121.57 238.604 121.535L238.622 121.556Z" fill="#E03341"/>
</g>
<defs>
<clipPath id="clip0_1_22614">
<rect width="320" height="295" fill="white"/>
</clipPath>
</defs>
</svg>
