<svg width="24" height="24" viewBox="0 0 24 24" fill="none" xmlns="http://www.w3.org/2000/svg">
<path d="M21 7.2002L3 7.2002L3 20.4002L21 20.4002L21 7.2002Z" stroke="#EC3237" stroke-width="1.44" stroke-miterlimit="10" stroke-linecap="square"/>
<path d="M12.0002 15.6C12.9943 15.6 13.8002 14.7941 13.8002 13.8C13.8002 12.8059 12.9943 12 12.0002 12C11.0061 12 10.2002 12.8059 10.2002 13.8C10.2002 14.7941 11.0061 15.6 12.0002 15.6Z" stroke="#EC3237" stroke-width="1.44" stroke-miterlimit="10" stroke-linecap="square"/>
<path d="M16.1999 9.6001L7.7999 9.6001C7.7999 10.9555 6.7553 12.0001 5.3999 12.0001L5.3999 15.6001C6.7553 15.6001 7.7999 16.6447 7.7999 18.0001H16.1999C16.1999 16.6447 17.2445 15.6001 18.5999 15.6001V12.0001C17.2445 12.0001 16.1999 10.9555 16.1999 9.6001Z" stroke="#EC3237" stroke-width="1.44" stroke-miterlimit="10" stroke-linecap="square"/>
<path d="M4.7998 4.8001V3.6001L19.1998 3.6001V4.8001" stroke="#EC3237" stroke-width="1.44" stroke-miterlimit="10" stroke-linecap="square"/>
</svg>
