<svg width="20" height="20" viewBox="0 0 20 20" fill="none" xmlns="http://www.w3.org/2000/svg">
<path d="M14.765 15.7915C14.6725 14.163 13.744 13.6465 12.386 13.194C11.415 12.8705 11.1025 11.8895 11.002 11.291" stroke="#565D6D" stroke-width="1.2" stroke-miterlimit="10"/>
<path d="M8.99655 11.2905C8.89605 11.889 8.58455 12.8705 7.61405 13.1945C6.25605 13.647 5.31905 14.157 5.22705 15.7855" stroke="#565D6D" stroke-width="1.2" stroke-miterlimit="10"/>
<path d="M10 11.5C8.6195 11.5 7.5 10.3805 7.5 9V8C7.5 6.6195 8.6195 5.5 10 5.5C11.3805 5.5 12.5 6.6195 12.5 8V9C12.5 10.3805 11.3805 11.5 10 11.5Z" stroke="#565D6D" stroke-width="1.2" stroke-miterlimit="10" stroke-linecap="square"/>
<path d="M17.4923 10.3557C17.6887 6.21815 14.4936 2.70481 10.3561 2.50847C6.21849 2.31214 2.70516 5.50715 2.50882 9.64472C2.31248 13.7823 5.50749 17.2956 9.64507 17.492C13.7826 17.6883 17.296 14.4933 17.4923 10.3557Z" stroke="#565D6D" stroke-width="1.2" stroke-miterlimit="10" stroke-linecap="square"/>
</svg>
