<svg width="82" height="61" viewBox="0 0 82 61" fill="none" xmlns="http://www.w3.org/2000/svg">
<path d="M0 0L82 0L82 51C82 56.5229 77.5229 61 72 61L10 61C4.47715 61 0 56.5228 0 51L0 0Z" fill="#565D6D"/>
<path d="M41 14.25L28.5 23.7917L28.5 20.5H24.3333V26.9792L18.0833 31.75L20.6042 35.0625L24.3333 32.2083L24.3333 51.75L38.9167 51.75L38.9167 39.25L43.0833 39.25L43.0833 51.75H57.6667V32.2083L61.3958 35.0417L63.9167 31.75L41 14.25ZM36.8333 10.0833C36.8333 13.5417 34.0417 16.3333 30.5833 16.3333C29.4375 16.3333 28.5 17.2708 28.5 18.4167H24.3333C24.3333 14.9583 27.125 12.1667 30.5833 12.1667C31.7292 12.1667 32.6667 11.2292 32.6667 10.0833L36.8333 10.0833Z" fill="white"/>
</svg>
