<svg width="20" height="20" viewBox="0 0 20 20" fill="none" xmlns="http://www.w3.org/2000/svg">
<path d="M10 17.5C14.1421 17.5 17.5 14.1421 17.5 10C17.5 5.85786 14.1421 2.5 10 2.5C5.85786 2.5 2.5 5.85786 2.5 10C2.5 14.1421 5.85786 17.5 10 17.5Z" stroke="#323743" stroke-width="1.2" stroke-miterlimit="10" stroke-linecap="square"/>
<path d="M10 15C10.4142 15 10.75 14.6642 10.75 14.25C10.75 13.8358 10.4142 13.5 10 13.5C9.58579 13.5 9.25 13.8358 9.25 14.25C9.25 14.6642 9.58579 15 10 15Z" fill="#323743"/>
<path d="M8.4541 5.895C9.8501 5.2775 11.6601 5.35 12.2776 6.35C12.8951 7.35 12.4686 8.512 11.4101 9.409C10.3516 10.306 10.0001 10.794 10.0001 11.5" stroke="#323743" stroke-width="1.2" stroke-miterlimit="10" stroke-linecap="square"/>
</svg>
