<svg width="20" height="20" viewBox="0 0 20 20" fill="none" xmlns="http://www.w3.org/2000/svg">
<path d="M17.3533 2.64646C17.2883 2.58145 17.2066 2.53562 17.1173 2.51401C17.0279 2.4924 16.9343 2.49584 16.8468 2.52396L2.84682 7.02396C2.75475 7.05338 2.67319 7.10886 2.612 7.18367C2.55081 7.25848 2.51261 7.34943 2.50203 7.4455C2.49145 7.54157 2.50894 7.63864 2.55238 7.72498C2.59583 7.81132 2.66336 7.88321 2.74682 7.93196L7.69982 10.8215L12.4998 7.49996L9.17832 12.3L12.0678 17.25C12.1116 17.3258 12.1746 17.3888 12.2504 17.4327C12.3262 17.4766 12.4122 17.4998 12.4998 17.5C12.5179 17.5 12.5359 17.499 12.5538 17.497C12.6499 17.4865 12.7409 17.4485 12.8157 17.3874C12.8906 17.3264 12.9462 17.2449 12.9758 17.153L17.4758 3.15296C17.5039 3.06543 17.5074 2.97185 17.4858 2.88249C17.4642 2.79313 17.4183 2.71147 17.3533 2.64646Z" fill="white"/>
</svg>
