<svg width="20" height="20" viewBox="0 0 20 20" fill="none" xmlns="http://www.w3.org/2000/svg">
<path d="M10 12C11.1046 12 12 11.1046 12 10C12 8.89543 11.1046 8 10 8C8.89543 8 8 8.89543 8 10C8 11.1046 8.89543 12 10 12Z" stroke="#565D6D" stroke-width="1.2" stroke-miterlimit="10" stroke-linecap="square"/>
<path d="M15.4999 10C15.4997 9.63481 15.4634 9.27053 15.3914 8.9125L17.2449 7.55L15.7449 4.95L13.6314 5.877C13.0843 5.39353 12.4462 5.02429 11.7544 4.791L11.4999 2.5L8.49988 2.5L8.24538 4.791C7.55359 5.02429 6.91542 5.39353 6.36838 5.877L4.25488 4.95L2.75488 7.55L4.60838 8.9135C4.46372 9.63128 4.46372 10.3707 4.60838 11.0885L2.75488 12.45L4.25488 15.05L6.36838 14.124C6.91542 14.6075 7.55359 14.9767 8.24538 15.21L8.49988 17.5H11.4999L11.7544 15.209C12.4462 14.9757 13.0843 14.6065 13.6314 14.123L15.7449 15.05L17.2449 12.45L15.3914 11.0865C15.4633 10.7288 15.4997 10.3649 15.4999 10Z" stroke="#565D6D" stroke-width="1.2" stroke-miterlimit="10" stroke-linecap="square"/>
</svg>
