<svg width="33" height="33" viewBox="0 0 33 33" fill="none" xmlns="http://www.w3.org/2000/svg">
<path d="M19.5389 13.7688C19.5389 13.7688 20.7309 6.74875 15.8613 3.69995C15.8613 5.83435 14.7021 8.09035 12.6205 9.91915C10.5389 11.748 6.62689 15.8544 6.66929 20.2448C6.69969 23.54 8.37089 27.5168 12.1901 29.3C12.2499 28.4537 12.478 27.6279 12.8611 26.8709C13.2443 26.114 13.7747 25.4412 14.4213 24.892C14.9693 24.4711 15.4279 23.9451 15.7701 23.3448C16.1123 22.7445 16.3312 22.082 16.4141 21.396C19.7037 22.896 21.3741 26.8496 21.3741 29.2064V29.2272C22.9526 28.5039 24.3003 27.3583 25.2684 25.917C26.2365 24.4757 26.7872 22.7947 26.8597 21.06C27.2045 16.94 24.9485 11.3408 22.9469 9.51115C22.1911 11.1968 21.0182 12.6621 19.5389 13.7688Z" fill="#1DD75B"/>
</svg>
