<svg width="33" height="33" viewBox="0 0 33 33" fill="none" xmlns="http://www.w3.org/2000/svg">
<path d="M17.3477 3.94005C17.0293 3.63685 16.5293 3.63685 16.2117 3.94005C15.8429 4.30885 7.17966 13.1168 7.17966 18.9C7.12846 24.1512 11.3437 28.4488 16.5949 28.5C16.6565 28.5 16.7181 28.5 16.7797 28.5C22.0309 28.5512 26.3285 24.336 26.3797 19.0848C26.3797 19.0232 26.3797 18.9616 26.3797 18.9C26.3797 13.1168 17.7165 4.30885 17.3477 3.94005ZM16.7797 22.9C14.5741 22.9 12.7797 21.1056 12.7797 18.9C12.7797 18.4584 13.1381 18.1 13.5797 18.1C14.0213 18.1 14.3797 18.4584 14.3797 18.9C14.3797 20.2232 15.4565 21.3 16.7797 21.3C17.2213 21.3 17.5797 21.6584 17.5797 22.1C17.5797 22.5416 17.2213 22.9 16.7797 22.9Z" fill="#1A99EE"/>
</svg>
