<svg width="20" height="20" viewBox="0 0 20 20" fill="none" xmlns="http://www.w3.org/2000/svg">
<path d="M10 3.3501L10 12.3751" stroke="white" stroke-width="1.14" stroke-miterlimit="10"/>
<path d="M7.1499 6.2001L9.9999 3.3501L12.8499 6.2001" stroke="white" stroke-width="1.14" stroke-miterlimit="10" stroke-linecap="square"/>
<path d="M12.375 9.0498L14.75 9.0498C15.1279 9.0498 15.4903 9.19994 15.7576 9.46718C16.0248 9.73442 16.175 10.0969 16.175 10.4748L16.175 15.2248C16.175 15.6027 16.0248 15.9652 15.7576 16.2324C15.4903 16.4997 15.1279 16.6498 14.75 16.6498L5.24995 16.6498C4.87202 16.6498 4.50956 16.4997 4.24232 16.2324C3.97508 15.9652 3.82495 15.6027 3.82495 15.2248L3.82495 10.4748C3.82495 10.0969 3.97508 9.73442 4.24232 9.46718C4.50956 9.19994 4.87202 9.0498 5.24995 9.0498L7.62495 9.0498" stroke="white" stroke-width="1.14" stroke-miterlimit="10" stroke-linecap="square"/>
</svg>
