<svg width="25" height="24" viewBox="0 0 25 24" fill="none" xmlns="http://www.w3.org/2000/svg">
<path d="M16.8125 4.47635C15.6545 3.13895 14.3511 1.93465 12.9266 0.885727C12.8005 0.797387 12.6502 0.75 12.4963 0.75C12.3423 0.75 12.192 0.797387 12.0659 0.885727C10.644 1.93509 9.34317 3.13937 8.1875 4.47635C5.61031 7.43604 4.25 10.556 4.25 13.4998C4.25 15.6878 5.11919 17.7862 6.66637 19.3334C8.21354 20.8806 10.312 21.7498 12.5 21.7498C14.688 21.7498 16.7865 20.8806 18.3336 19.3334C19.8808 17.7862 20.75 15.6878 20.75 13.4998C20.75 10.556 19.3897 7.43604 16.8125 4.47635ZM17.7359 14.3754C17.5415 15.4617 17.0188 16.4623 16.2384 17.2426C15.458 18.0228 14.4573 18.5452 13.3709 18.7395C13.3309 18.7459 13.2905 18.7493 13.25 18.7498C13.0619 18.7497 12.8806 18.679 12.7422 18.5516C12.6038 18.4241 12.5183 18.2494 12.5028 18.0619C12.4872 17.8744 12.5426 17.6879 12.6581 17.5394C12.7736 17.3909 12.9407 17.2912 13.1262 17.2601C14.6797 16.9985 15.9978 15.6804 16.2612 14.1242C16.2946 13.928 16.4045 13.7531 16.5667 13.6379C16.729 13.5228 16.9304 13.4768 17.1266 13.5101C17.3227 13.5434 17.4976 13.6533 17.6128 13.8156C17.728 13.9779 17.7739 14.1792 17.7406 14.3754H17.7359Z" fill="#565D6D"/>
</svg>
