<svg width="12" height="12" viewBox="0 0 12 12" fill="none" xmlns="http://www.w3.org/2000/svg">
<path d="M8.15625 2.23828C7.57724 1.56958 6.92557 0.967433 6.21328 0.44297C6.15023 0.398801 6.07511 0.375107 5.99813 0.375107C5.92114 0.375107 5.84602 0.398801 5.78297 0.44297C5.07199 0.967651 4.42159 1.56979 3.84375 2.23828C2.55516 3.71813 1.875 5.27813 1.875 6.75C1.875 7.84402 2.3096 8.89323 3.08318 9.66682C3.85677 10.4404 4.90598 10.875 6 10.875C7.09402 10.875 8.14323 10.4404 8.91682 9.66682C9.6904 8.89323 10.125 7.84402 10.125 6.75C10.125 5.27813 9.44484 3.71813 8.15625 2.23828ZM8.61797 7.18781C8.52073 7.73096 8.25942 8.23127 7.86921 8.62139C7.479 9.01152 6.97863 9.27272 6.43547 9.36985C6.41547 9.37306 6.39526 9.37478 6.375 9.375C6.28093 9.37498 6.19031 9.3396 6.12111 9.27589C6.05191 9.21218 6.00917 9.12479 6.00138 9.03105C5.9936 8.9373 6.02132 8.84406 6.07907 8.7698C6.13681 8.69555 6.22035 8.6457 6.31312 8.63016C7.08984 8.49938 7.74891 7.84031 7.88062 7.06219C7.89728 6.9641 7.95223 6.87665 8.03336 6.81907C8.1145 6.76149 8.21519 6.7385 8.31328 6.75516C8.41137 6.77182 8.49882 6.82676 8.5564 6.9079C8.61398 6.98904 8.63697 7.08973 8.62031 7.18781H8.61797Z" fill="#71B2FF"/>
</svg>
