<svg width="25" height="24" viewBox="0 0 25 24" fill="none" xmlns="http://www.w3.org/2000/svg">
<g clip-path="url(#clip0_1_2)">
<path d="M16.8125 4.47656C15.6545 3.13916 14.3511 1.93486 12.9266 0.885938C12.8005 0.797598 12.6502 0.750211 12.4962 0.750211C12.3423 0.750211 12.192 0.797598 12.0659 0.885938C10.644 1.9353 9.34317 3.13958 8.1875 4.47656C5.61031 7.43625 4.25 10.5563 4.25 13.5C4.25 15.688 5.11919 17.7865 6.66637 19.3336C8.21354 20.8808 10.312 21.75 12.5 21.75C14.688 21.75 16.7865 20.8808 18.3336 19.3336C19.8808 17.7865 20.75 15.688 20.75 13.5C20.75 10.5563 19.3897 7.43625 16.8125 4.47656ZM17.7359 14.3756C17.5415 15.4619 17.0188 16.4625 16.2384 17.2428C15.458 18.023 14.4573 18.5454 13.3709 18.7397C13.3309 18.7461 13.2905 18.7496 13.25 18.75C13.0619 18.75 12.8806 18.6792 12.7422 18.5518C12.6038 18.4244 12.5183 18.2496 12.5028 18.0621C12.4872 17.8746 12.5426 17.6881 12.6581 17.5396C12.7736 17.3911 12.9407 17.2914 13.1262 17.2603C14.6797 16.9988 15.9978 15.6806 16.2612 14.1244C16.2946 13.9282 16.4045 13.7533 16.5667 13.6381C16.729 13.523 16.9304 13.477 17.1266 13.5103C17.3227 13.5436 17.4976 13.6535 17.6128 13.8158C17.728 13.9781 17.7739 14.1794 17.7406 14.3756H17.7359Z" fill="#EC3237"/>
</g>
<defs>
<clipPath id="clip0_1_2">
<rect width="24" height="24" fill="white" transform="translate(0.5)"/>
</clipPath>
</defs>
</svg>
