<svg width="21" height="21" viewBox="0 0 21 21" fill="none" xmlns="http://www.w3.org/2000/svg">
<path d="M14.0938 4.23042C13.1287 3.11591 12.0426 2.11233 10.8555 1.23823C10.7504 1.16461 10.6252 1.12512 10.4969 1.12512C10.3686 1.12512 10.2434 1.16461 10.1383 1.23823C8.95332 2.1127 7.86931 3.11626 6.90625 4.23042C4.75859 6.69682 3.625 9.29682 3.625 11.7499C3.625 13.5733 4.34933 15.322 5.63864 16.6113C6.92795 17.9006 8.67664 18.6249 10.5 18.6249C12.3234 18.6249 14.072 17.9006 15.3614 16.6113C16.6507 15.322 17.375 13.5733 17.375 11.7499C17.375 9.29682 16.2414 6.69682 14.0938 4.23042ZM14.8633 12.4796C14.7012 13.3849 14.2657 14.2187 13.6153 14.8689C12.965 15.5191 12.1311 15.9545 11.2258 16.1164C11.1924 16.1217 11.1588 16.1246 11.125 16.1249C10.9682 16.1249 10.8172 16.0659 10.7018 15.9598C10.5865 15.8536 10.5153 15.7079 10.5023 15.5517C10.4893 15.3955 10.5355 15.24 10.6318 15.1163C10.728 14.9925 10.8673 14.9094 11.0219 14.8835C12.3164 14.6656 13.4148 13.5671 13.6344 12.2703C13.6621 12.1068 13.7537 11.961 13.8889 11.8651C14.0242 11.7691 14.192 11.7308 14.3555 11.7585C14.519 11.7863 14.6647 11.8779 14.7607 12.0131C14.8566 12.1483 14.895 12.3162 14.8672 12.4796H14.8633Z" fill="white"/>
</svg>
