<svg width="36" height="43" viewBox="0 0 36 43" fill="none" xmlns="http://www.w3.org/2000/svg">
<path d="M26.9434 7.05468C24.5145 4.49511 21.7812 2.24266 18.8047 0.347652C18.5617 0.201647 18.2835 0.124512 18 0.124512C17.7165 0.124512 17.4383 0.201647 17.1953 0.347652C14.2188 2.24266 11.4855 4.49511 9.05664 7.05468C3.66211 12.7187 0.8125 18.9668 0.8125 25.125C0.8125 29.6834 2.62332 34.0551 5.8466 37.2784C9.06988 40.5017 13.4416 42.3125 18 42.3125C22.5584 42.3125 26.9301 40.5017 30.1534 37.2784C33.3767 34.0551 35.1875 29.6834 35.1875 25.125C35.1875 18.9668 32.3379 12.7187 26.9434 7.05468ZM11.75 32.9375C11.75 27.5332 16.1504 23.7031 18 22.332C19.8516 23.6992 24.25 27.5332 24.25 32.9375C24.25 34.5951 23.5915 36.1848 22.4194 37.3569C21.2473 38.529 19.6576 39.1875 18 39.1875C16.3424 39.1875 14.7527 38.529 13.5806 37.3569C12.4085 36.1848 11.75 34.5951 11.75 32.9375Z" fill="#6CFF79"/>
</svg>
